<svg width="246" height="517" viewBox="0 0 246 517" fill="none" xmlns="http://www.w3.org/2000/svg">
<path d="M36.0898 209.331C13.9068 187.193 0.156584 156.587 0.122692 122.754C0.0888001 88.9211 13.7766 58.288 35.9163 36.0888C58.0711 13.9058 88.6928 0.1566 122.51 0.122724C156.343 0.0888316 186.976 13.7766 209.175 35.9163C231.358 58.0711 245.108 88.6767 245.142 122.51C245.176 156.343 231.488 186.976 209.349 209.159C191.867 226.675 171.277 254.433 145.063 265.422C155.863 276.248 179.738 288.525 185.482 331.361C192.576 384.119 192.669 382.417 196.109 404.056C199.659 426.324 178.564 438.064 170.334 413.453L159.71 358.95L159.753 401.571L155.334 502.727C156.254 509.183 151.787 515.174 145.314 516.125C144.732 516.189 144.181 516.22 143.613 516.221C137.833 516.227 132.788 511.979 131.932 506.089L122.918 407.94L111.188 506.111C110.343 512.002 105.307 516.26 99.5272 516.266C98.9596 516.267 98.3931 516.236 97.8255 516.173C91.3509 515.234 86.8561 509.254 87.779 502.795L86.0709 401.646L86.0282 359.024L75.5296 413.547C67.3326 438.174 46.2306 426.477 49.7203 404.201C53.1169 382.556 53.2284 384.258 60.2007 331.485C65.8754 288.638 89.7094 276.313 100.504 265.465C74.2523 254.529 53.607 226.814 36.0898 209.331ZM105.398 198.221C101.413 198.225 98.1876 201.457 98.1916 205.442C98.1956 209.411 101.428 212.652 105.412 212.648C109.397 212.644 112.623 209.396 112.619 205.427C112.615 201.442 109.383 198.217 105.398 198.221ZM132.812 205.407C132.816 209.377 136.048 212.617 140.033 212.613C144.018 212.609 147.243 209.361 147.239 205.393C147.235 201.408 144.003 198.182 140.018 198.186C136.033 198.19 132.808 201.422 132.812 205.407ZM204.556 158.382C217.524 148.399 223.146 130.752 225.637 118.308C227.047 111.14 225.264 106.858 220.238 105.618C204.184 101.696 184.515 105.874 171.261 114.062C154.938 124.142 145.944 140.06 142.325 159.153C140.899 166.684 144.478 170.161 148.999 170.582C168.848 172.421 190.281 169.375 204.556 158.382ZM101.942 239.397L143.572 239.355C147.084 239.352 149.932 236.513 149.929 232.985C149.925 229.488 147.072 226.624 143.559 226.628L101.93 226.669C98.4014 226.673 95.5686 229.543 95.5721 233.04C95.5767 236.568 98.4142 239.4 101.942 239.397ZM96.3614 170.635C100.881 170.205 104.453 166.72 103.012 159.193C99.355 140.106 90.3291 124.207 74.0018 114.159C60.7157 105.998 41.0385 101.86 25.0085 105.813C19.9856 107.062 18.1936 111.348 19.6342 118.514C22.1356 130.955 27.7922 148.59 40.7808 158.546C55.0768 169.511 76.5169 172.513 96.3614 170.635Z" fill="#D90429"/>
</svg>
