<svg width="1440" height="768" viewBox="0 0 1440 768" fill="none" xmlns="http://www.w3.org/2000/svg">
<path d="M1035.78 170.777C1053.88 163.83 1069.33 149.98 1077.84 130.863C1086.36 111.746 1086.31 90.9934 1079.36 72.8871C1072.41 54.7862 1058.55 39.3276 1039.44 30.8201C1020.32 22.3087 999.571 22.3572 981.465 29.3004C963.364 36.2563 947.908 50.1061 939.397 69.2232C930.886 88.3403 930.934 109.093 937.881 127.19C943.367 141.48 948.039 162.339 960.099 175.131C951.277 178.54 934.699 179.487 920.699 202.26C903.447 230.304 903.821 229.319 896.445 240.687C888.849 252.384 897.827 264.315 908.657 252.469L928.343 224.325L917.621 248.408L894.728 306.7C892.587 310.119 893.609 314.626 897.029 316.789C897.342 316.971 897.646 317.127 897.967 317.27C901.233 318.724 905.15 317.589 907.113 314.475L936.844 261.254L918.834 319.694C917.833 323.236 919.611 326.908 922.877 328.362C923.197 328.504 923.525 328.629 923.862 328.736C927.758 329.83 931.8 327.578 932.899 323.696L959.254 266.945L969.977 242.862L962.226 276.319C960.678 292.298 975.543 290.982 979.161 277.514C982.674 264.425 982.184 265.359 991.489 233.777C999.036 208.132 988.657 195.182 985.277 186.34C1002.86 186.748 1021.49 176.262 1035.78 170.777ZM999.39 147.099C1001.64 148.101 1002.65 150.738 1001.65 152.99C1000.65 155.233 998.012 156.253 995.76 155.251C993.508 154.248 992.5 151.603 993.499 149.36C994.501 147.109 997.138 146.096 999.39 147.099ZM982.089 144.28C981.09 146.523 978.45 147.544 976.198 146.541C973.947 145.539 972.938 142.893 973.937 140.651C974.939 138.399 977.576 137.387 979.828 138.389C982.079 139.392 983.091 142.029 982.089 144.28ZM953.336 99.6892C948.511 90.7903 949.762 79.4039 951.478 71.7436C952.48 67.3378 954.563 65.3647 957.715 65.9254C967.775 67.7384 977.845 75.0371 983.282 82.9922C989.979 92.788 991.068 104.044 988.321 115.745C987.237 120.36 984.341 121.428 981.68 120.531C969.998 116.588 958.646 109.487 953.336 99.6892ZM991.008 171.243L967.485 160.77C965.501 159.887 964.603 157.567 965.49 155.573C966.37 153.597 968.702 152.695 970.687 153.579L994.209 164.051C996.203 164.939 997.084 167.272 996.204 169.248C995.316 171.241 993.001 172.131 991.008 171.243ZM1011.42 133.773C1008.98 132.395 1007.83 129.529 1010.53 125.635C1017.39 115.764 1026.49 109.042 1038.24 107.46C1047.8 106.182 1059.96 108.781 1068.03 115.04C1070.55 117.007 1070.49 119.879 1067.88 123.568C1063.34 129.973 1055.72 138.522 1045.88 140.891C1035.04 143.5 1022.17 139.816 1011.42 133.773Z" fill="#0C1124"/>
<path d="M202.259 182.026C184.162 175.079 168.707 161.229 160.195 142.112C151.684 122.995 151.732 102.242 158.675 84.1361C165.631 66.0352 179.49 50.5766 198.598 42.0692C217.715 33.5577 238.468 33.6062 256.574 40.5495C274.675 47.5053 290.13 61.3551 298.642 80.4722C307.153 99.5893 307.105 120.342 300.157 138.439C294.672 152.729 290 173.588 277.94 186.38C286.762 189.789 303.34 190.736 317.34 213.509C334.592 241.553 334.217 240.568 341.593 251.936C349.19 263.633 340.212 275.564 329.382 263.718L309.696 235.574L320.418 259.657L343.311 317.949C345.451 321.368 344.43 325.875 341.01 328.038C340.696 328.22 340.393 328.377 340.072 328.519C336.806 329.973 332.888 328.838 330.925 325.724L301.194 272.503L319.205 330.943C320.206 334.485 318.428 338.157 315.162 339.611C314.841 339.753 314.513 339.878 314.177 339.985C310.281 341.08 306.239 338.827 305.14 334.945L278.785 278.194L268.062 254.111L275.813 287.568C277.361 303.547 262.496 302.231 258.877 288.763C255.364 275.674 255.855 276.608 246.55 245.026C239.003 219.381 249.382 206.431 252.761 197.589C235.177 197.997 216.549 187.511 202.259 182.026ZM238.649 158.348C236.398 159.35 235.385 161.987 236.388 164.239C237.387 166.482 240.027 167.502 242.279 166.5C244.53 165.497 245.538 162.852 244.54 160.609C243.537 158.358 240.901 157.346 238.649 158.348ZM255.95 155.529C256.949 157.772 259.589 158.793 261.841 157.79C264.092 156.788 265.1 154.142 264.102 151.9C263.099 149.648 260.463 148.636 258.211 149.638C255.96 150.641 254.947 153.278 255.95 155.529ZM284.703 110.938C289.528 102.039 288.276 90.653 286.561 82.9926C285.559 78.5868 283.476 76.6137 280.323 77.1744C270.264 78.9874 260.194 86.2861 254.757 94.2412C248.06 104.037 246.971 115.293 249.718 126.994C250.802 131.609 253.698 132.677 256.359 131.78C268.041 127.837 279.392 120.736 284.703 110.938ZM247.031 182.492L270.553 172.019C272.538 171.136 273.436 168.816 272.548 166.822C271.669 164.847 269.337 163.944 267.352 164.828L243.829 175.3C241.836 176.188 240.955 178.521 241.834 180.497C242.723 182.49 245.038 183.38 247.031 182.492ZM226.617 145.022C229.064 143.644 230.208 140.778 227.504 136.884C220.646 127.013 211.553 120.291 199.801 118.709C190.242 117.431 178.08 120.03 170.011 126.289C167.485 128.256 167.547 131.128 170.16 134.817C174.697 141.222 182.321 149.771 192.163 152.14C202.996 154.749 215.87 151.065 226.617 145.022Z" fill="#0C1124"/>
<path d="M303.187 548.175C178.087 421.275 45.937 503.175 -4.50049 559.988V767.551H1443.37V559.988C1185.97 336.338 1039.12 466.8 997.875 559.988C946.687 533.55 796.275 481.125 604.125 482.925C411.975 484.725 323.437 527.175 303.187 548.175Z" fill="#0C1124"/>
</svg>
