<svg width="135" height="25" viewBox="0 0 135 25" fill="none" xmlns="http://www.w3.org/2000/svg">
<path d="M1.68752 14.1141C0.755539 14.1141 1.52588e-05 13.3586 1.52588e-05 12.4266C1.52588e-05 11.4947 0.755539 10.7391 1.68752 10.7391V12.4266V14.1141ZM133.943 11.2334C134.602 11.8924 134.602 12.9609 133.943 13.6199L123.204 24.3591C122.545 25.0181 121.477 25.0181 120.818 24.3591C120.159 23.7001 120.159 22.6316 120.818 21.9726L130.364 12.4266L120.818 2.88069C120.159 2.22168 120.159 1.15322 120.818 0.494208C121.477 -0.164802 122.545 -0.164802 123.204 0.494208L133.943 11.2334ZM1.68752 12.4266V10.7391H132.75V12.4266V14.1141H1.68752V12.4266Z" fill="#0C1124"/>
</svg>
