<svg width="1348" height="1033" viewBox="0 0 1348 1033" fill="none" xmlns="http://www.w3.org/2000/svg">
<path d="M252.503 710.006C138.927 685.777 85.9255 585.073 73.6215 537.75L1274.68 547.215C1260.17 577.501 1224.71 643.375 1198.97 664.576C1173.22 685.777 1137.13 730.197 1122.3 749.758C1051.32 757.329 1071.19 787.616 1026.71 827.368C982.226 867.119 929.224 876.584 920.706 876.584C912.187 876.584 919.759 893.62 891.365 904.978C851.614 918.228 791.04 975.962 784.415 981.641C779.115 986.184 705.859 1017.61 669.893 1032.75C622.57 975.016 549.692 947.568 538.335 937.157C526.977 926.746 536.442 914.442 520.352 908.763C487.226 896.459 494.797 881.316 477.761 863.333C460.725 845.35 419.08 871.851 402.99 869.958C386.901 868.065 397.312 845.35 375.543 837.779C353.774 830.207 361.346 792.348 328.22 770.58C295.094 748.811 323.488 724.203 252.503 710.006Z" fill="#C7D7F2"/>
<ellipse cx="673.875" cy="389.25" rx="673.875" ry="389.25" fill="#C7D7F2"/>
<ellipse cx="674.437" cy="389.659" rx="610.312" ry="352.534" fill="#0C1124"/>
<path d="M224.29 398.319C225.584 396.125 231.3 393.137 233.996 391.918C233.996 394.052 242.894 393.747 245.32 394.662C247.747 395.576 267.969 393.443 272.013 391.918C276.058 390.394 303.56 389.785 306.795 389.785C310.031 389.785 324.59 387.956 327.826 389.785C331.061 391.614 318.119 397.71 314.884 401.978C311.648 406.245 331.061 401.368 322.164 406.55C313.266 411.732 321.355 413.866 320.546 413.256C319.737 412.646 325.399 411.122 331.061 409.293C336.724 407.464 334.297 406.55 339.959 405.635C345.621 404.721 344.004 403.807 352.901 403.807C361.799 403.807 360.99 404.721 360.99 406.55C360.99 408.379 368.27 409.293 372.314 409.293C376.359 409.293 384.447 412.037 388.492 412.342C392.536 412.646 392.536 410.208 390.11 407.464C387.683 404.721 392.536 405.026 403.052 404.721C413.567 404.416 410.332 405.331 411.949 405.635C413.567 405.94 418.42 407.16 423.274 409.293C428.127 411.427 435.407 409.293 446.731 410.208C458.055 411.122 454.82 410.208 458.864 409.293C462.909 408.379 465.335 409.598 471.806 409.293C478.277 408.989 479.086 410.208 485.557 410.208C492.028 410.208 483.131 403.502 490.411 401.368C497.69 399.234 497.69 393.443 499.308 391.309C500.926 389.175 489.602 391.309 487.175 391.309C484.748 391.309 482.322 392.833 477.469 393.443C472.615 394.052 473.424 392.833 463.718 391.918C454.011 391.004 461.291 391.918 454.82 392.833C448.349 393.747 448.349 390.394 440.26 387.956C432.171 385.517 439.451 382.164 440.26 380.03C441.069 377.897 445.922 378.201 450.776 378.201C455.629 378.201 463.718 378.201 461.291 376.982C459.35 376.007 464.796 374.543 467.762 373.934H487.175C496.073 373.934 500.117 376.982 505.779 378.201C511.441 379.421 517.912 377.592 523.575 377.592C529.237 377.592 530.046 375.458 528.428 373.324C526.81 371.19 516.295 367.228 512.25 366.008C508.206 364.789 509.015 365.399 503.353 364.789C497.69 364.179 496.073 364.179 487.175 364.789C478.277 365.399 479.086 366.008 473.424 365.399C467.762 364.789 466.953 366.618 463.718 369.057C460.482 371.495 453.202 370.276 450.776 370.276C448.349 370.276 448.349 372.105 448.349 373.324C448.349 374.543 447.54 378.201 443.496 377.592C439.451 376.982 436.216 379.116 433.789 377.592C431.362 376.068 427.318 377.592 423.274 377.592C419.229 377.592 419.229 379.421 415.994 381.554C412.758 383.688 418.42 383.993 423.274 386.432C428.127 388.87 423.274 389.175 421.656 389.785C420.038 390.394 418.42 389.175 415.994 389.175C413.567 389.175 413.567 392.528 411.949 392.833C410.332 393.138 406.287 390.394 403.052 389.785C399.816 389.175 405.478 386.432 404.669 385.517C403.861 384.603 391.727 378.201 394.154 376.372C396.581 374.543 391.727 372.715 390.11 370.276C388.492 367.837 369.079 368.447 370.697 366.008C371.991 364.058 367.461 362.147 365.034 361.436C362.877 361.538 358.24 361.863 356.946 362.351C355.328 362.96 357.754 366.008 360.99 366.618C364.225 367.228 364.225 368.447 365.034 370.276C365.843 372.105 370.697 373.324 372.314 374.848C373.932 376.372 379.594 376.372 382.83 376.982C386.065 377.592 390.918 380.64 386.065 381.554C381.212 382.469 385.256 380.03 379.594 378.201C373.932 376.372 376.359 380.03 379.594 381.554C382.83 383.079 378.785 384.907 376.359 386.432C373.932 387.956 366.652 386.736 370.697 385.517C374.741 384.298 372.314 383.383 370.697 380.64C369.079 377.897 366.652 379.421 362.608 376.982C358.563 374.543 356.137 375.763 352.901 374.848C349.666 373.934 346.43 371.19 341.577 370.276C336.724 369.361 344.004 366.618 341.577 364.179C339.15 361.741 340.768 363.57 331.061 366.008C321.355 368.447 321.355 368.447 314.884 370.276C308.413 372.105 307.604 368.447 304.368 366.618C301.133 364.789 297.897 369.666 297.897 372.105C297.897 374.543 289 375.153 287.382 374.848C285.764 374.543 272.013 378.811 272.013 382.469C272.013 386.127 259.071 389.175 254.218 390.394C249.365 391.614 244.511 389.48 241.276 391.004C238.04 392.528 232.378 391.918 228.334 391.004C224.289 390.09 229.952 389.175 229.952 387.651C229.952 386.127 218.627 389.175 216.201 387.651C213.774 386.127 218.627 383.993 216.201 383.383C213.774 382.774 212.156 380.64 216.201 380.03C220.245 379.421 221.054 375.458 224.29 373.934C227.525 372.41 225.907 369.666 225.907 368.447C225.907 367.228 229.952 364.789 256.645 366.008C285.764 366.313 280.102 357.473 278.484 355.035C276.867 352.596 250.174 347.414 249.365 346.5C248.556 345.585 269.587 345.28 272.013 343.756C274.44 342.232 259.88 343.451 260.689 342.537C261.498 341.622 267.969 340.708 272.013 340.098C276.058 339.489 270.396 337.66 269.587 336.745C268.778 335.831 276.867 335.831 275.249 335.221C273.631 334.612 270.396 332.783 275.249 333.392C279.131 333.88 281.72 333.189 282.529 332.783C283.607 331.868 285.117 329.673 282.529 328.21C279.293 326.381 280.102 325.467 278.484 323.028C276.867 320.59 278.484 319.066 280.102 318.456C281.72 317.846 282.529 314.798 289 313.884C295.471 312.969 303.56 313.884 297.897 314.798C292.235 315.712 293.853 316.627 297.897 316.627C301.942 316.627 305.986 318.456 297.897 319.675C289.809 320.894 295.471 323.943 297.897 326.076C300.324 328.21 301.133 330.954 301.942 332.783C302.751 334.612 310.839 335.831 311.648 336.745C312.457 337.66 305.177 337.355 305.986 340.098C306.795 342.842 309.222 338.879 316.502 340.098C323.782 341.318 324.59 337.355 326.208 335.831C327.826 334.307 340.768 331.563 344.004 332.173C347.239 332.783 357.754 330.344 352.901 328.21C348.048 326.076 352.092 324.552 352.901 321.199C353.71 317.846 360.181 319.066 364.225 318.456C368.27 317.846 373.932 313.884 371.505 312.664C369.079 311.445 360.99 315.408 357.754 316.627C354.519 317.846 345.621 316.627 344.004 314.798C342.709 313.335 347.778 310.53 350.475 309.311C342.386 306.263 347.239 305.348 350.475 301.995C353.71 298.642 368.27 299.557 371.505 297.423C374.741 295.289 382.83 294.984 382.83 294.07C382.83 293.155 395.772 290.107 395.772 287.973C395.772 285.84 416.803 282.791 416.803 279.743C416.803 276.695 426.509 276.695 426.509 276.085C426.509 275.476 424.083 273.647 426.509 273.037C428.936 272.427 437.025 275.171 441.069 273.037C445.113 270.903 449.158 271.208 453.202 271.208C457.247 271.208 455.629 269.379 459.673 268.77C463.718 268.16 460.482 271.513 465.335 269.989C470.189 268.465 470.189 269.989 475.042 270.599C479.895 271.208 483.94 272.427 483.131 273.037C482.322 273.647 472.615 274.561 481.513 274.561C488.631 274.561 492.028 276.797 492.837 277.914C510.633 276.39 507.397 281.267 517.912 281.267C528.428 281.267 529.237 286.145 531.663 286.145C534.09 286.145 531.663 284.925 532.472 283.706C533.281 282.487 536.517 283.401 540.561 283.096C544.605 282.791 541.37 281.267 536.517 279.743C531.663 278.219 535.708 278.219 539.752 277.914C542.988 277.67 545.954 278.829 547.032 279.438C548.65 280.251 550.915 282.06 547.032 282.791C542.179 283.706 548.65 286.145 553.503 286.145C558.356 286.145 555.93 281.877 566.445 281.267C574.857 280.78 575.343 279.845 574.534 279.438C576.152 279.134 580.358 278.524 584.24 278.524C589.094 278.524 585.049 280.048 588.285 280.048C591.52 280.048 595.565 277.609 602.036 279.438C608.507 281.267 609.316 278.524 609.316 277.609C609.316 276.695 604.462 275.171 601.227 274.561C597.991 273.952 601.227 272.427 609.316 272.427C615.787 271.208 620.64 272.427 623.876 273.647C626.464 274.622 640.592 276.695 647.333 277.609C645.985 276.797 641.994 274.622 636.818 272.427C630.347 269.684 638.435 268.465 639.244 266.026C640.053 263.588 640.862 261.454 643.289 258.71C645.715 255.966 650.569 261.149 659.466 262.673C664.079 263.463 663.909 264.745 662.676 266.136C664.182 265.405 668.917 264.964 668.364 262.673C667.717 259.991 684.811 262.571 693.439 264.197C691.821 263.791 687.13 262.124 681.306 258.71C674.026 254.442 685.35 255.662 693.439 257.491C699.91 258.954 708.538 257.491 712.043 256.577C710.156 256.577 706.219 255.662 705.572 252.004C704.763 247.431 724.177 249.261 722.559 246.213C720.941 243.165 729.839 245.298 735.501 247.127C740.031 248.59 748.173 246.517 751.678 245.298C752.487 244.892 753.62 243.53 751.678 241.335C749.252 238.592 762.194 238.897 763.812 240.421C765.429 241.945 775.136 243.469 776.754 242.554C778.371 241.64 779.989 239.506 797.784 242.554C812.021 244.993 810.727 247.432 808.3 248.346C806.952 248.956 803.447 250.297 800.211 250.785C796.167 251.394 792.931 255.052 797.784 255.052C802.638 255.052 808.3 250.175 813.153 252.004C818.006 253.833 835.802 250.175 837.419 252.614C838.59 254.379 854.594 254.866 860.584 255.001C854.937 254.43 859.394 249.311 861.686 250.175C864.112 251.09 875.437 250.175 881.099 250.175C886.761 250.175 895.659 255.662 899.703 257.491C903.748 259.32 906.983 258.71 910.219 258.71C913.454 258.71 911.027 256.881 903.748 255.052C896.468 253.223 907.792 253.833 915.072 255.052C922.352 256.272 929.632 255.052 936.912 255.662C944.191 256.272 941.765 253.833 936.912 252.614C932.058 251.394 930.441 250.175 936.912 250.175C943.383 250.175 946.618 248.346 957.134 249.261C962.082 249.691 963.806 250.054 964.329 250.254C964.348 250.23 964.375 250.204 964.413 250.175C965.222 249.565 970.884 249.261 977.356 250.175C983.827 251.09 978.164 252.004 986.253 252.004C994.342 252.004 996.769 253.833 1006.48 252.614C1016.18 251.394 1026.7 251.699 1033.17 252.004C1039.64 252.309 1039.64 256.272 1050.15 255.662C1060.67 255.052 1067.14 253.833 1078.47 253.833C1089.79 253.833 1096.26 255.052 1096.26 253.833C1096.26 252.614 1078.47 250.48 1089.79 250.785C1101.11 251.09 1109.2 248.041 1120.53 249.261C1131.85 250.48 1159.35 251.09 1162.59 253.833C1165.82 256.576 1171.49 255.052 1200.61 255.052C1229.73 255.052 1219.21 258.71 1216.78 258.71C1214.36 258.71 1211.93 261.149 1216.78 262.673C1221.64 264.197 1220.02 266.636 1211.93 266.026C1203.84 265.416 1194.94 262.673 1193.33 261.149C1191.71 259.625 1185.24 265.112 1181.19 262.673C1177.15 260.234 1169.87 260.234 1169.06 261.149C1168.25 262.063 1187.66 264.197 1181.19 265.112C1174.72 266.026 1176.34 268.16 1179.58 268.16C1182.81 268.16 1188.47 271.513 1193.33 271.818C1198.18 272.122 1204.65 275.171 1208.69 276.695C1212.74 278.219 1200.61 277 1194.94 276.085C1189.28 275.171 1187.66 279.438 1185.24 280.048C1182.81 280.657 1185.24 285.23 1181.19 288.278C1177.15 291.326 1178.77 287.059 1173.91 285.23C1169.06 283.401 1173.91 287.668 1162.59 287.668C1151.26 287.668 1150.46 292.85 1149.65 296.508C1148.84 300.166 1154.5 295.899 1167.44 298.947C1180.38 301.995 1169.87 304.434 1173.91 306.263C1177.96 308.092 1182 306.263 1185.24 310.53C1188.47 314.798 1179.58 309.311 1179.58 311.75C1179.58 314.188 1175.53 315.103 1176.34 318.456C1177.15 321.809 1183.62 321.199 1179.58 325.162C1175.53 329.124 1169.87 322.114 1167.44 319.98C1165.02 317.846 1148.84 315.712 1146.41 309.311C1143.98 302.909 1134.28 303.519 1127.81 301.081C1121.34 298.642 1135.09 298.032 1137.51 294.375C1139.94 290.717 1134.28 289.497 1135.09 288.278C1135.9 287.059 1142.37 289.192 1139.13 285.23C1135.9 281.267 1131.04 282.181 1127.81 286.144C1124.57 290.107 1123.76 291.326 1123.76 287.668C1123.76 284.01 1121.34 284.925 1112.44 285.23C1103.54 285.535 1103.54 285.535 1100.31 287.668C1097.07 289.802 1098.69 293.46 1103.54 292.85C1108.39 292.241 1114.86 295.899 1109.2 297.118C1103.54 298.337 1093.03 298.947 1089.79 295.899C1086.55 292.85 1078.47 295.594 1078.47 296.508C1078.47 297.423 1062.29 298.337 1052.58 298.032C1042.87 297.728 1046.11 306.567 1046.11 309.311C1046.11 312.054 1035.59 317.541 1039.64 317.541C1043.68 317.541 1044.49 319.98 1048.54 319.98C1052.58 319.98 1066.33 321.199 1074.42 321.199C1082.51 321.199 1081.7 318.456 1085.75 317.541C1089.79 316.627 1095.45 323.942 1096.26 325.162C1097.07 326.381 1111.63 327.6 1112.44 332.173C1113.25 336.745 1119.72 338.879 1123.76 341.927C1127.81 344.975 1132.66 344.671 1134.28 346.804C1135.57 348.511 1129.42 347.515 1126.19 346.804C1124.03 346.093 1119.23 344.671 1117.29 344.671C1114.86 344.671 1113.25 341.012 1109.2 338.879C1105.16 336.745 1107.58 335.83 1100.31 333.697C1093.03 331.563 1094.64 328.515 1090.6 326.686C1086.55 324.857 1085.75 327.6 1093.03 332.173C1100.31 336.745 1100.31 337.05 1100.31 344.671V355.339C1100.31 362.045 1095.45 359.607 1085.75 359.607C1076.04 359.607 1077.66 357.473 1078.47 359.607C1079.27 361.741 1071.19 361.741 1071.19 364.179C1071.19 366.618 1072.8 370.276 1068.76 370.885C1065.52 371.373 1065.79 373.527 1066.33 374.543C1071.99 377.083 1083.8 382.164 1085.75 382.164C1088.17 382.164 1091.41 384.602 1090.6 388.565C1089.79 392.528 1078.47 391.309 1074.42 391.309C1070.38 391.309 1069.57 390.089 1071.19 386.431C1072.8 382.773 1066.33 385.517 1066.33 383.383C1066.33 381.249 1063.91 382.164 1059.05 380.335C1054.2 378.506 1056.63 381.249 1052.58 378.811C1048.54 376.372 1052.58 374.543 1048.54 374.543C1044.49 374.543 1045.3 374.543 1044.49 373.019C1043.68 371.495 1038.02 373.934 1035.59 375.762C1033.17 377.591 1025.89 376.372 1027.51 373.934C1029.12 371.495 1020.23 369.361 1020.23 370.885C1020.23 372.409 1015.37 373.629 1010.52 374.543C1005.67 375.458 998.386 377.896 1007.28 378.811C1016.18 379.725 1013.76 381.249 1015.37 383.383C1016.99 385.517 1024.27 384.298 1024.27 382.164C1024.27 380.03 1032.36 381.249 1038.02 381.249C1043.68 381.249 1042.07 383.688 1038.02 383.383C1033.98 383.078 1024.27 391.004 1028.31 391.309C1032.36 391.613 1035.59 394.662 1038.02 397.71C1040.45 400.758 1045.3 391.918 1048.54 400.453C1050.53 405.706 1048.84 407.149 1048.01 407.482C1048.14 407.471 1048.32 407.464 1048.54 407.464C1051.77 407.464 1056.63 407.769 1059.05 411.122C1061.48 414.475 1052.58 415.999 1052.58 416.914C1052.58 417.828 1048.54 418.438 1052.58 421.181C1056.63 423.925 1050.96 424.534 1048.54 425.754C1046.11 426.973 1045.3 427.278 1042.07 427.278C1038.83 427.278 1038.83 431.545 1035.59 433.069C1032.36 434.593 1025.08 431.85 1024.27 434.289C1023.46 436.727 1016.18 439.775 1007.28 438.251C998.386 436.727 1001.62 441.604 1001.62 443.738C1001.62 445.872 1000.81 448.615 998.386 449.225C995.96 449.835 990.298 448.311 990.298 445.872C990.298 443.433 997.577 440.69 995.96 437.642C994.342 434.593 987.062 434.898 983.018 437.642C978.973 440.385 975.738 442.824 970.884 444.653C966.031 446.482 983.018 455.626 992.724 458.979C1000.49 461.662 1001.89 463.755 1001.62 464.466L995.96 473.001C994.072 474.017 989.65 476.05 987.062 476.05C983.827 476.05 980.591 479.098 975.738 480.927C970.884 482.756 970.884 480.927 968.458 477.269C966.031 473.611 968.458 475.135 958.751 474.525C949.045 473.916 954.707 473.916 952.28 469.648C949.854 465.381 942.574 467.21 942.574 465.686C942.574 464.161 935.294 465.381 935.294 469.648C935.294 473.916 935.294 471.782 931.249 473.916C927.205 476.05 929.632 475.44 932.867 477.269C936.103 479.098 939.338 480.927 939.338 483.06C939.338 485.194 953.898 487.938 954.707 488.852C955.516 489.767 959.56 491.9 961.987 493.12C964.413 494.339 964.413 497.387 966.031 498.607C967.649 499.826 970.884 504.398 970.884 507.142C970.884 509.885 961.987 509.885 966.031 511.104C970.076 512.324 969.267 513.238 970.884 516.896C972.502 520.554 977.356 516.896 980.591 516.896C983.827 516.896 990.298 517.81 990.298 519.639C990.298 521.468 987.062 520.554 980.591 522.078C974.12 523.602 981.4 525.126 980.591 526.65C979.782 528.174 983.827 529.699 987.062 529.699C990.298 529.699 1002.43 533.661 1012.14 533.052C1021.84 532.442 1025.08 532.442 1028.31 534.576C1031.55 536.709 1038.02 534.576 1045.3 536.709C1052.58 538.843 1055.82 536.709 1057.43 537.319C1059.05 537.929 1067.14 538.234 1076.04 538.234C1084.94 538.234 1093.03 538.234 1091.41 539.453C1089.79 540.672 1059.86 539.453 1057.43 540.672C1055.01 541.891 1045.3 539.453 1035.59 539.453C1025.89 539.453 1026.7 537.929 1019.42 538.234C1012.14 538.538 1017.8 535.795 1010.52 535.49C1003.24 535.185 996.769 535.49 990.298 534.576C983.827 533.661 986.253 530.918 973.311 530.613C960.369 530.308 970.076 528.479 961.987 525.736C953.898 522.992 950.663 519.03 942.574 516.896C934.485 514.762 932.867 507.142 931.249 505.313C929.632 503.484 924.778 500.74 911.836 494.949C898.894 489.157 917.498 492.205 920.734 493.12C923.97 494.034 960.369 506.227 966.031 505.313C971.693 504.398 928.014 492.51 939.338 489.462C950.663 486.414 928.014 483.06 924.778 480.927C921.543 478.793 923.97 472.696 924.778 468.734C925.587 464.771 922.352 465.381 920.734 463.857C919.116 462.332 919.116 460.808 917.498 458.065C915.881 455.321 914.263 455.322 911.836 453.797C909.41 452.273 896.468 459.589 894.85 458.065C893.232 456.541 890.805 452.883 890.805 449.225C890.805 445.567 888.379 447.091 881.099 445.872C873.819 444.653 873.819 440.69 872.201 439.775C870.584 438.861 868.157 430.631 865.73 435.813C863.789 439.958 858.45 440.182 856.024 439.775C853.058 438.963 845.994 437.52 841.464 438.251C835.802 439.166 839.846 440.69 834.993 442.824C830.14 444.958 811.535 455.321 807.491 458.065C803.447 460.808 796.976 458.37 796.976 461.723V469.648C796.976 473.001 795.358 472.696 794.549 476.05C793.74 479.403 794.549 477.269 791.313 477.878C788.078 478.488 788.887 482.146 789.696 483.06C790.505 483.975 783.225 483.975 779.18 483.06C775.136 482.146 776.754 480.927 771.9 477.269C767.047 473.611 770.283 473.916 767.047 471.782C763.812 469.648 760.576 463.857 756.532 461.723C752.487 459.589 746.825 454.407 746.825 451.664C746.825 448.92 743.59 449.53 741.972 449.225C740.354 448.92 746.825 440.69 746.825 439.775C746.825 438.861 741.972 437.947 741.972 440.69C741.972 442.885 732.805 443.027 728.221 442.824C726.603 442.417 723.044 441.239 721.75 439.775C720.132 437.947 724.177 436.422 716.897 436.422C709.617 436.422 708.808 434.289 703.955 431.545C699.101 428.802 696.675 428.802 694.248 428.802H677.262C670.791 428.802 661.893 429.411 657.848 428.802C653.804 428.192 638.435 429.411 638.435 427.278C638.435 425.144 634.391 424.839 625.493 422.705C619.831 422.705 618.213 423.925 613.36 423.62C608.507 423.315 607.698 423.62 605.271 422.096C602.845 420.572 600.418 420.572 597.183 420.572C593.947 420.572 595.565 419.047 595.565 417.219C595.565 415.39 589.094 413.561 583.432 413.256C577.769 412.951 581.005 415.085 581.005 417.219C581.005 419.352 583.432 421.181 583.432 422.705C583.432 424.229 595.565 423.925 595.565 426.363C595.565 428.802 602.845 432.46 607.698 433.069C612.428 433.664 614.853 432.52 620.964 429.64L621.449 429.411C622.258 426.363 631.155 425.449 631.155 427.278C631.155 429.107 638.435 434.289 644.098 434.289C649.76 434.289 659.466 438.861 650.569 440.69C641.671 442.519 644.906 449.225 640.862 449.225C636.818 449.225 636.009 452.578 631.155 452.883C626.302 453.188 627.111 454.102 625.493 455.321C624.199 456.297 614.708 456.541 610.125 456.541C607.968 457.658 603.006 460.26 600.418 461.723C597.183 463.552 587.476 461.723 581.005 463.857C574.534 465.99 557.547 467.21 548.65 473.916C539.752 480.622 554.312 477.574 565.636 475.44C576.961 473.306 573.725 473.001 595.565 472.696C617.405 472.392 596.374 478.183 595.565 480.927C594.756 483.67 585.858 485.499 585.858 489.462C585.858 493.424 553.503 508.361 548.65 509.275C543.797 510.19 518.721 527.26 515.486 527.87C512.25 528.479 513.868 536.1 521.148 538.234C528.428 540.367 525.192 549.207 526.81 554.999C528.428 560.791 522.766 563.839 511.441 564.753C500.117 565.668 491.219 572.374 488.793 572.679C486.366 572.984 491.219 577.861 493.646 582.738C496.073 587.615 486.366 589.444 479.086 590.358C471.806 591.273 470.189 593.102 470.189 595.236C470.189 597.369 467.762 601.637 465.335 603.771C462.909 605.905 457.247 606.819 457.247 608.953C457.247 611.087 437.025 620.231 432.171 620.841C427.318 621.451 429.745 613.83 409.523 619.317C389.301 624.804 386.065 619.317 381.212 617.793C376.359 616.269 382.83 608.038 375.55 606.819C368.27 605.6 361.799 598.589 357.754 596.15C353.71 593.712 358.563 590.358 354.519 588.53C350.475 586.701 353.71 585.786 349.666 582.738C345.621 579.69 348.048 576.641 340.768 573.593C333.488 570.545 330.253 565.058 330.253 562.01C330.253 558.962 335.106 551.341 337.533 549.817C339.959 548.293 342.386 545.854 340.768 543.72C339.15 541.587 335.106 535.795 335.106 534.271C335.106 532.747 322.164 523.297 319.737 521.163C317.311 519.03 307.604 515.981 302.751 512.933C297.897 509.885 313.266 499.521 310.031 497.692C306.795 495.863 303.56 496.168 297.897 495.558C292.235 494.949 291.426 495.558 285.764 495.558C280.102 495.558 279.293 492.205 277.675 490.376C276.058 488.547 265.542 488.547 260.689 488.547C255.836 488.547 236.423 495.558 233.996 495.558C231.57 495.558 210.539 492.51 205.685 492.205C200.832 491.9 188.699 495.863 183.846 495.558C178.992 495.253 158.77 485.499 156.344 485.194C153.917 484.889 153.108 482.451 151.49 480.927C149.873 479.403 144.21 476.05 140.166 474.525C136.122 473.001 134.504 470.258 129.651 469.039C124.798 467.819 134.504 465.076 129.651 462.637C125.768 460.686 135.043 454.102 140.166 451.054C139.627 450.749 138.548 449.591 138.548 447.396C138.548 445.201 135.852 442.417 134.504 441.3C135.798 436.91 151.221 430.732 158.77 428.192C157.962 426.668 160.388 423.315 163.624 423.315C166.212 423.315 169.016 421.892 170.095 421.181C170.364 419.962 171.712 417.462 174.948 417.219C178.183 416.975 190.856 414.069 196.788 412.646C197.435 404.355 215.392 399.64 224.29 398.319Z" fill="#EDF2F4"/>
<path d="M748.741 299.274L751.209 335.418H746.273L748.741 299.274Z" fill="#D90429"/>
<path d="M748.741 300.275L751.209 264.131H746.273L748.741 300.275Z" fill="#D90429"/>
<path d="M748.241 299.774L784.385 297.307V302.242L748.241 299.774Z" fill="#D90429"/>
<path d="M749.241 299.774L713.097 297.307V302.242L749.241 299.774Z" fill="#D90429"/>
<path d="M749.173 299.439L724.422 325.894L721.056 322.285L749.173 299.439Z" fill="#D90429"/>
<path d="M748.443 300.121L776.56 277.276L773.194 273.666L748.443 300.121Z" fill="#D90429"/>
<path d="M748.469 299.416L774.924 324.167L771.315 327.533L748.469 299.416Z" fill="#D90429"/>
<path d="M749.151 300.147L726.305 272.03L722.696 275.396L749.151 300.147Z" fill="#D90429"/>
<path d="M749.076 299.352L737.824 333.789L733.248 331.94L749.076 299.352Z" fill="#D90429"/>
<path d="M748.701 300.279L764.529 267.692L759.953 265.843L748.701 300.279Z" fill="#D90429"/>
<path d="M748.426 299.628L782.863 310.88L781.014 315.456L748.426 299.628Z" fill="#D90429"/>
<path d="M749.353 300.002L716.766 284.175L714.917 288.751L749.353 300.002Z" fill="#D90429"/>
<path d="M749.215 299.568L716.356 314.825L714.587 310.217L749.215 299.568Z" fill="#D90429"/>
<path d="M748.282 299.926L782.91 289.277L781.141 284.67L748.282 299.926Z" fill="#D90429"/>
<path d="M748.558 299.286L763.814 332.145L759.207 333.914L748.558 299.286Z" fill="#D90429"/>
<path d="M748.916 300.22L738.267 265.592L733.659 267.361L748.916 300.22Z" fill="#D90429"/>
<path d="M748.935 277.009L769.828 311.447H728.041L748.935 277.009Z" fill="#D90429"/>
<path d="M366.591 362.556L391.296 311.578L397.962 315.029L388.159 333.224C385.649 333.224 375.296 349.956 370.434 358.321H369.257L366.591 362.556Z" fill="#D90429"/>
<path d="M426.902 362.556L402.197 311.578L395.531 315.029L405.334 333.224C407.844 333.224 418.197 349.956 423.059 358.321H424.236L426.902 362.556Z" fill="#D90429"/>
<circle cx="396.864" cy="308.756" r="6.5096" fill="#D90429"/>
<path d="M397.648 369.382L391.217 362.559C400.079 353.461 418.447 334.685 421.02 332.364C423.592 330.042 426.536 331.396 427.686 332.364L429.255 331.03L432 333.383L397.648 369.382Z" fill="#D90429"/>
<path d="M397.727 369.382L404.158 362.559C395.296 353.461 376.928 334.685 374.355 332.364C371.783 330.042 368.839 331.396 367.689 332.364L366.12 331.03L363.375 333.383L397.727 369.382Z" fill="#D90429"/>
<path d="M948.505 323.618L968.448 289.787L972.098 291.568L950.375 324.686L948.505 323.618Z" fill="#D90429"/>
<path d="M995.423 323.618L975.481 289.787L971.831 291.568L993.554 324.686L995.423 323.618Z" fill="#D90429"/>
<circle cx="972.098" cy="288.184" r="4.18433" fill="#D90429"/>
<path d="M952.156 306.97L947.526 311.065L971.92 336.082L976.727 331.185L952.156 306.97Z" fill="#D90429"/>
<path d="M991.773 306.97L996.403 311.065L972.454 335.548L967.201 330.74L991.773 306.97Z" fill="#D90429"/>
<path d="M968.982 323.44L967.913 319.79L964.441 320.413V316.228L958.209 314.982L964.441 311.688L960.969 310.887L963.818 308.661L961.414 307.504L961.77 306.346H964.085L964.975 302.073H967.557V299.936L968.982 299.669L971.742 301.717L972.81 299.046H973.967L975.926 304.922L977.974 299.046L987.322 312.222L977.083 321.926L975.57 320.858L973.967 324.241L972.098 321.214L968.982 323.44Z" fill="#D90429"/>
<path d="M978.864 341.925C978.579 342.068 976.015 343.528 974.768 344.24L974.501 345.398C977.991 344.4 980.169 344.329 980.822 344.418C987.588 345.843 989.458 343.973 989.814 343.35C990.099 342.851 989.517 342.489 989.191 342.371C991.001 342.044 994.711 341.231 995.067 340.59C995.423 339.949 994.8 339.314 994.444 339.076C995.69 339.255 999.251 336.584 999.607 336.05C999.892 335.622 999.31 335.397 998.984 335.337C1000.11 334.477 1002.42 332.631 1002.63 332.132C1002.85 331.634 1002.43 331.212 1002.19 331.064C1003.08 330.174 1004.91 328.215 1005.13 327.503C1005.34 326.791 1004.86 326.494 1004.59 326.434C1005.31 325.277 1006.69 322.82 1006.55 322.25C1006.41 321.68 1005.54 321.775 1005.13 321.894C1008.83 317.692 1007.74 316.226 1006.73 316.018C1007.26 315.395 1008.06 311.389 1007.62 310.854C1007.26 310.427 1007 310.795 1006.91 311.033C1007.09 309.578 1007.39 306.581 1007.17 306.225C1006.96 305.869 1006.43 306.195 1006.2 306.403C1006.05 304.652 1005.71 301.097 1005.57 300.883C1005.43 300.67 1004.56 300.794 1004.15 300.883C1004.59 299.993 1003.52 296.788 1003.08 296.521C1002.72 296.307 1002.52 297.025 1002.46 297.411C1001.24 295.898 998.735 292.835 998.45 292.693C998.165 292.55 997.856 293.049 997.738 293.316C996.373 291.802 993.375 288.9 992.307 289.399C991.239 289.897 992.218 291.328 992.841 291.98C991.239 291.417 988.016 290.538 987.945 291.535C987.873 292.532 990.823 294.325 992.307 295.096C991.452 298.301 995.571 299.221 997.738 299.281C997.738 299.993 998.984 302.13 999.607 303.109C998.895 304.961 1000.26 306.492 1001.03 307.026C1000.03 307.596 1000.79 309.935 1001.3 311.033C1000.09 311.175 1001.03 314.416 1001.65 316.018C999.589 316.232 1000.38 319.193 1001.03 320.648C999.18 320.932 998.895 323.378 998.984 324.565C997.346 323.924 996.818 326.85 996.758 328.393C995.191 328.322 993.731 331.094 993.197 332.488C992.058 331.634 990.586 333.616 989.992 334.714C988.496 334.572 986.223 336.376 985.274 337.296C982.852 336.94 979.991 340.234 978.864 341.925Z" fill="#D90429"/>
<path d="M966.886 341.958C967.171 342.1 969.735 343.56 970.981 344.272L971.248 345.43C967.758 344.433 965.58 344.361 964.927 344.45C958.161 345.875 956.292 344.005 955.935 343.382C955.651 342.884 956.232 342.521 956.559 342.403C954.748 342.076 951.039 341.263 950.683 340.622C950.327 339.981 950.95 339.346 951.306 339.109C950.06 339.287 946.498 336.616 946.142 336.082C945.857 335.654 946.439 335.429 946.765 335.37C945.638 334.509 943.329 332.663 943.115 332.165C942.902 331.666 943.323 331.245 943.56 331.096C942.67 330.206 940.836 328.247 940.623 327.535C940.409 326.823 940.89 326.526 941.157 326.467C940.444 325.309 939.056 322.852 939.198 322.282C939.341 321.713 940.207 321.808 940.623 321.926C936.919 317.724 938.011 316.258 939.02 316.05C938.486 315.427 937.685 311.421 938.13 310.887C938.486 310.459 938.753 310.827 938.842 311.065C938.664 309.611 938.361 306.613 938.575 306.257C938.789 305.901 939.317 306.228 939.554 306.435C939.703 304.684 940.035 301.129 940.177 300.916C940.32 300.702 941.186 300.827 941.602 300.916C941.157 300.025 942.225 296.82 942.67 296.553C943.026 296.339 943.234 297.058 943.293 297.443C944.51 295.93 947.015 292.867 947.3 292.725C947.585 292.582 947.893 293.081 948.012 293.348C949.377 291.835 952.374 288.932 953.443 289.431C954.511 289.929 953.532 291.36 952.908 292.013C954.511 291.449 957.734 290.57 957.805 291.568C957.876 292.565 954.926 294.357 953.443 295.129C954.297 298.334 950.178 299.254 948.012 299.313C948.012 300.025 946.765 302.162 946.142 303.141C946.855 304.993 945.489 306.524 944.718 307.058C945.715 307.628 944.955 309.967 944.451 311.065C945.662 311.207 944.718 314.448 944.095 316.05C946.16 316.264 945.371 319.226 944.718 320.68C946.57 320.965 946.855 323.41 946.765 324.597C948.404 323.956 948.932 326.882 948.991 328.425C950.558 328.354 952.018 331.126 952.552 332.521C953.692 331.666 955.164 333.648 955.757 334.746C957.253 334.604 959.526 336.408 960.476 337.328C962.897 336.972 965.758 340.266 966.886 341.958Z" fill="#D90429"/>
<ellipse cx="971.831" cy="345.341" rx="3.38308" ry="4.7185" fill="#D90429"/>
</svg>
