<svg width="1348" height="737" viewBox="0 0 1348 737" fill="none" xmlns="http://www.w3.org/2000/svg">
<path d="M937.365 622.479C997.97 544.75 1164.89 435.929 1347.75 622.479C1276.95 708.288 1095.75 828.422 937.365 622.479Z" fill="#D90429"/>
<circle cx="1142.27" cy="628.251" r="88.888" fill="white"/>
<path d="M468.682 622.479C529.288 544.75 696.212 435.929 879.068 622.479C808.265 708.288 627.064 828.422 468.682 622.479Z" fill="white"/>
<circle cx="673.586" cy="628.251" r="88.888" fill="#D90429"/>
<path d="M0.000244141 362.74C60.6057 285.011 227.53 176.191 410.386 362.74C339.583 448.55 158.382 568.684 0.000244141 362.74Z" fill="white"/>
<circle cx="204.904" cy="368.512" r="88.888" fill="#D90429"/>
<path d="M937.365 362.74C997.97 285.011 1164.89 176.191 1347.75 362.74C1276.95 448.55 1095.75 568.684 937.365 362.74Z" fill="white"/>
<circle cx="1142.27" cy="368.512" r="88.888" fill="#D90429"/>
<path d="M937.365 103.004C997.97 25.2747 1164.89 -83.5458 1347.75 103.004C1276.95 188.813 1095.75 308.947 937.365 103.004Z" fill="#D90429"/>
<circle cx="1142.27" cy="108.776" r="88.888" fill="white"/>
<path d="M468.682 103.004C529.288 25.2747 696.212 -83.5458 879.068 103.004C808.265 188.813 627.064 308.947 468.682 103.004Z" fill="white"/>
<circle cx="673.586" cy="108.776" r="88.888" fill="#D90429"/>
<path d="M0.000488281 103.004C60.6059 25.2747 227.531 -83.5458 410.386 103.004C339.583 188.813 158.383 308.947 0.000488281 103.004Z" fill="#D90429"/>
<circle cx="204.904" cy="108.776" r="88.888" fill="white"/>
<path d="M0 622.479C60.6055 544.75 227.53 435.929 410.385 622.479C339.583 708.288 158.382 828.422 0 622.479Z" fill="#D90429"/>
<circle cx="204.904" cy="628.251" r="88.888" fill="white"/>
<path d="M468.682 362.74C529.288 285.011 696.212 176.191 879.068 362.74C808.265 448.55 627.064 568.684 468.682 362.74Z" fill="#D90429"/>
<circle cx="673.586" cy="368.512" r="88.888" fill="white"/>
<path d="M680.034 623.388C683.678 624.819 686.898 626.38 689.696 628.072C692.558 629.698 694.803 631.748 696.429 634.22C698.056 636.627 698.869 639.718 698.869 643.491C698.869 645.963 698.479 648.241 697.698 650.322C696.982 652.339 695.844 654.128 694.282 655.69C692.786 657.251 690.899 658.585 688.622 659.691C686.41 660.797 683.808 661.61 680.815 662.131C677.887 662.716 674.602 663.009 670.959 663.009C668.486 663.009 665.786 662.879 662.859 662.619C659.931 662.424 657.036 662.066 654.173 661.545C651.375 660.96 648.806 660.179 646.463 659.203C642.95 657.772 640.12 655.983 637.973 653.836C635.826 651.689 634.753 649.184 634.753 646.321C634.753 644.63 635.273 643.101 636.314 641.735C637.355 640.303 638.982 639.588 641.194 639.588C643.861 639.588 645.78 640.466 646.951 642.222C648.188 643.979 648.773 647.069 648.708 651.494H643.633C643.633 648.826 643.438 646.907 643.048 645.736C642.657 644.5 641.909 643.881 640.803 643.881C640.153 643.881 639.697 644.109 639.437 644.565C639.177 645.02 639.047 645.606 639.047 646.321C639.047 647.753 639.697 649.151 640.998 650.518C642.365 651.884 644.251 653.022 646.659 653.933C649.001 654.779 651.506 655.462 654.173 655.983C656.906 656.503 659.671 656.893 662.468 657.154C665.266 657.349 667.933 657.446 670.471 657.446C673.854 657.446 676.814 657.154 679.351 656.568C681.889 655.983 684.003 655.169 685.695 654.128C687.386 653.022 688.655 651.689 689.501 650.127C690.346 648.566 690.769 646.809 690.769 644.857C690.769 642.125 690.086 639.913 688.72 638.221C687.354 636.465 685.369 634.968 682.767 633.732C680.23 632.431 677.204 631.13 673.691 629.829C671.219 628.918 668.877 627.909 666.665 626.803C664.518 625.632 662.598 624.298 660.907 622.802C659.28 621.306 658.012 619.517 657.101 617.435C656.19 615.288 655.735 612.783 655.735 609.92C655.735 606.017 656.71 602.699 658.662 599.966C660.679 597.168 663.379 595.054 666.762 593.623C670.21 592.126 674.081 591.378 678.375 591.378C681.758 591.378 685.011 591.736 688.134 592.452C691.322 593.167 694.51 594.208 697.698 595.575L694.673 602.601C691.68 601.365 688.85 600.421 686.183 599.771C683.515 599.12 680.848 598.795 678.18 598.795C675.513 598.795 673.138 599.218 671.056 600.064C668.974 600.909 667.348 602.146 666.177 603.772C665.071 605.334 664.518 607.285 664.518 609.627C664.518 612.23 665.168 614.312 666.469 615.873C667.771 617.435 669.592 618.768 671.934 619.874C674.277 620.98 676.977 622.151 680.034 623.388ZM643.633 669.743V642.418L646.268 642.71L647.244 644.369H648.22C649.326 642.483 650.627 641.214 652.124 640.563C653.62 639.848 655.214 639.49 656.906 639.49C659.053 639.49 660.809 639.913 662.175 640.759C663.607 641.539 664.648 642.775 665.298 644.467H665.493C666.6 642.645 667.933 641.377 669.495 640.661C671.121 639.88 672.65 639.49 674.081 639.49C677.074 639.49 679.351 640.303 680.913 641.93C682.474 643.491 683.255 646.224 683.255 650.127V669.743H677.985V650.713C677.985 648.11 677.595 646.321 676.814 645.345C676.033 644.369 674.699 643.881 672.813 643.881C670.991 643.881 669.397 644.662 668.031 646.224C666.73 647.72 666.079 649.834 666.079 652.567V669.743H660.809V651.006C660.809 648.598 660.386 646.809 659.541 645.638C658.695 644.467 657.426 643.881 655.735 643.881C653.327 643.881 651.571 644.825 650.465 646.712C649.424 648.533 648.903 651.233 648.903 654.812V669.743H643.633Z" fill="white"/>
<path d="M204.908 395.347C203.411 395.347 201.947 395.217 200.516 394.957C199.15 394.762 198.044 394.534 197.198 394.274V387.345C197.849 387.605 198.759 387.833 199.931 388.028C201.167 388.223 202.403 388.321 203.639 388.321C206.697 388.321 209.169 387.67 211.056 386.369C213.008 385.068 214.439 383.181 215.35 380.709C216.261 378.172 216.716 375.114 216.716 371.536C216.716 365.94 215.643 361.972 213.496 359.63C211.349 357.287 208.063 356.116 203.639 356.116C199.735 356.116 196.71 356.995 194.563 358.751C192.481 360.443 191.44 363.013 191.44 366.461C191.44 369.193 192.058 371.308 193.294 372.804C194.596 374.301 196.255 375.049 198.272 375.049C198.597 375.049 199.02 375.016 199.54 374.951C200.061 374.886 200.549 374.789 201.004 374.658L202.37 381.197C201.72 381.652 200.874 382.01 199.833 382.27C198.857 382.466 197.816 382.563 196.71 382.563C192.221 382.563 188.805 381.067 186.463 378.074C184.186 375.016 183.048 371.178 183.048 366.558C183.048 360.768 184.837 356.409 188.415 353.481C192.058 350.489 197.133 348.992 203.639 348.992C211.381 348.992 216.944 350.977 220.327 354.945C223.775 358.849 225.499 364.281 225.499 371.243C225.499 375.797 224.783 379.896 223.352 383.539C221.986 387.182 219.774 390.078 216.716 392.225C213.723 394.307 209.787 395.347 204.908 395.347Z" fill="white"/>
<path d="M677.882 84.585L675.93 103.322L694.667 98.0524L696.034 107.031L678.077 108.495L689.69 123.914L681.298 128.5L673.002 111.422L665.488 128.5L656.803 123.914L668.221 108.495L650.459 107.031L651.825 98.0524L670.368 103.322L668.318 84.585H677.882Z" fill="white"/>
<path d="M711.704 357.604C711.704 361.052 710.825 364.013 709.069 366.485C707.377 368.892 704.775 370.746 701.262 372.048C697.748 373.349 693.292 374.097 687.892 374.292L679.109 374.585V377.903C679.109 382.132 680.085 385.092 682.036 386.784C684.053 388.475 686.721 389.321 690.039 389.321C692.641 389.321 695.179 388.931 697.651 388.15C700.188 387.304 702.53 386.361 704.677 385.32L707.312 391.761C705.035 392.997 702.27 394.07 699.017 394.981C695.829 395.827 692.609 396.25 689.356 396.25C685.322 396.25 681.971 395.599 679.304 394.298C676.702 392.932 674.717 390.785 673.351 387.857C671.659 390.525 669.447 392.607 666.715 394.103C663.982 395.599 660.859 396.347 657.346 396.347C653.117 396.347 649.474 395.372 646.416 393.42C643.358 391.468 640.984 388.735 639.292 385.222C637.666 381.644 636.852 377.545 636.852 372.926V367.656H670.326C670.196 361.41 668.829 356.824 666.227 353.896C663.69 350.903 660.014 349.407 655.199 349.407C652.011 349.407 649.149 349.732 646.611 350.383C644.139 350.968 641.667 351.847 639.194 353.018V345.503C641.797 344.332 644.334 343.486 646.806 342.966C649.344 342.38 652.239 342.088 655.492 342.088C658.485 342.088 661.217 342.51 663.69 343.356C666.227 344.137 668.471 345.341 670.423 346.967C672.375 348.594 674.002 350.643 675.303 353.115C676.799 350.838 678.426 348.886 680.182 347.26C682.004 345.633 684.118 344.365 686.526 343.454C688.933 342.543 691.795 342.088 695.113 342.088C698.301 342.088 701.131 342.641 703.604 343.747C706.076 344.853 708.028 346.544 709.459 348.821C710.956 351.098 711.704 354.026 711.704 357.604ZM645.928 374.39C645.928 377.383 646.319 380.017 647.099 382.295C647.945 384.507 649.214 386.231 650.905 387.467C652.662 388.703 654.841 389.321 657.444 389.321C661.217 389.321 664.177 388.052 666.324 385.515C668.536 382.913 669.805 379.204 670.13 374.39H645.928ZM702.823 357.507C702.823 354.579 701.977 352.432 700.286 351.066C698.659 349.7 696.48 349.016 693.747 349.016C691.015 349.016 688.542 349.569 686.33 350.675C684.183 351.716 682.459 353.343 681.158 355.555C679.922 357.767 679.304 360.565 679.304 363.948V368.632L686.623 368.339C692.739 368.079 696.968 367.038 699.31 365.216C701.652 363.395 702.823 360.825 702.823 357.507Z" fill="#D90429"/>
<path d="M202.435 133.339C197.751 133.339 193.912 132.786 190.92 131.68C187.927 130.509 185.715 128.882 184.284 126.801C182.917 124.654 182.234 122.149 182.234 119.286C182.234 115.187 183.893 111.934 187.211 109.527C190.529 107.12 195.344 105.916 201.655 105.916C208.03 105.916 213.495 107.218 218.05 109.82C222.604 112.422 226.085 115.578 228.492 119.286C229.793 121.303 230.801 123.352 231.517 125.434C232.233 127.516 232.591 129.761 232.591 132.168C232.591 133.794 232.46 135.388 232.2 136.95C231.94 138.576 231.485 140.138 230.834 141.634L223.71 140.17C224.165 139.064 224.491 137.828 224.686 136.462C224.946 135.096 225.076 133.534 225.076 131.778C225.076 128.264 224.1 125.109 222.148 122.311C220.262 119.514 217.562 117.302 214.048 115.675C210.6 114.049 206.469 113.236 201.655 113.236C197.946 113.236 195.116 113.789 193.164 114.895C191.278 115.936 190.334 117.399 190.334 119.286C190.334 120.717 190.757 121.954 191.603 122.995C192.449 123.97 193.782 124.719 195.604 125.239C197.426 125.76 199.768 126.02 202.63 126.02C207.25 126.02 211.446 125.369 215.22 124.068C219.058 122.702 222.051 120.652 224.198 117.92C225.759 116.228 226.93 114.244 227.711 111.967C228.492 109.625 228.882 107.055 228.882 104.257C228.882 101.069 228.427 98.532 227.516 96.6453C226.67 94.6935 225.499 93.2947 224.003 92.4489C222.506 91.5381 220.815 91.0826 218.928 91.0826C217.041 91.0826 215.382 91.5381 213.951 92.4489C212.585 93.3597 211.479 94.5634 210.633 96.0597C209.787 97.5561 209.202 99.2477 208.876 101.134H201.264C200.679 97.6862 199.54 95.0838 197.849 93.3272C196.157 91.5706 193.912 90.6923 191.115 90.6923C188.708 90.6923 186.918 91.2778 185.747 92.4489C184.641 93.5549 184.088 94.9537 184.088 96.6453C184.088 97.6862 184.219 98.7597 184.479 99.8657C184.804 100.907 185.129 101.752 185.455 102.403L178.038 104.55C177.517 103.444 177.029 102.208 176.574 100.842C176.184 99.4103 175.988 97.7513 175.988 95.8646C175.988 93.3272 176.639 91.1477 177.94 89.326C179.306 87.4393 181.096 85.9754 183.308 84.9345C185.585 83.8935 188.09 83.3731 190.822 83.3731C193.229 83.3731 195.311 83.7309 197.068 84.4465C198.89 85.0971 200.516 86.1706 201.947 87.667C203.379 89.0983 204.68 90.9851 205.851 93.3272L204.094 93.5224C205.461 90.7899 206.957 88.708 208.583 87.2766C210.275 85.7803 212.064 84.7718 213.951 84.2514C215.838 83.6658 217.724 83.3731 219.611 83.3731C222.083 83.3731 224.36 83.861 226.442 84.8369C228.589 85.7477 230.444 87.114 232.005 88.9357C233.566 90.6923 234.77 92.8718 235.616 95.4742C236.527 98.0115 236.982 100.907 236.982 104.16C236.982 108.519 236.266 112.325 234.835 115.578C233.469 118.766 231.485 121.596 228.882 124.068C228.687 124.263 228.492 124.426 228.297 124.556C228.101 124.621 227.906 124.719 227.711 124.849C227.516 124.979 227.288 125.142 227.028 125.337C224.035 127.809 220.587 129.761 216.683 131.192C212.845 132.623 208.095 133.339 202.435 133.339Z" fill="#D90429"/>
<path d="M201.281 654.741C196.596 654.741 192.758 654.188 189.765 653.082C186.772 651.911 184.56 650.284 183.129 648.202C181.763 646.055 181.08 643.551 181.08 640.688C181.08 636.589 182.739 633.336 186.057 630.929C189.375 628.522 194.189 627.318 200.5 627.318C206.876 627.318 212.341 628.619 216.895 631.222C221.449 633.824 224.93 636.98 227.337 640.688C228.638 642.705 229.647 644.754 230.363 646.836C231.078 648.918 231.436 651.163 231.436 653.57C231.436 655.196 231.306 656.79 231.046 658.352C230.785 659.978 230.33 661.54 229.679 663.036L222.555 661.572C223.011 660.466 223.336 659.23 223.531 657.864C223.791 656.498 223.922 654.936 223.922 653.179C223.922 649.666 222.946 646.511 220.994 643.713C219.107 640.916 216.407 638.704 212.894 637.077C209.446 635.451 205.314 634.637 200.5 634.637C196.792 634.637 193.961 635.19 192.01 636.296C190.123 637.337 189.18 638.801 189.18 640.688C189.18 642.119 189.602 643.355 190.448 644.396C191.294 645.372 192.628 646.12 194.449 646.641C196.271 647.161 198.613 647.422 201.476 647.422C206.095 647.422 210.292 646.771 214.065 645.47C217.904 644.104 220.896 642.054 223.043 639.322C224.605 637.63 225.776 635.646 226.556 633.369C227.337 631.027 227.728 628.457 227.728 625.659C227.728 622.471 227.272 619.934 226.361 618.047C225.516 616.095 224.344 614.697 222.848 613.851C221.352 612.94 219.66 612.485 217.773 612.485C215.887 612.485 214.228 612.94 212.796 613.851C211.43 614.762 210.324 615.965 209.478 617.462C208.633 618.958 208.047 620.65 207.722 622.536H200.11C199.524 619.088 198.386 616.486 196.694 614.729C195.002 612.972 192.758 612.094 189.96 612.094C187.553 612.094 185.764 612.68 184.593 613.851C183.487 614.957 182.934 616.356 182.934 618.047C182.934 619.088 183.064 620.162 183.324 621.268C183.65 622.309 183.975 623.154 184.3 623.805L176.883 625.952C176.363 624.846 175.875 623.61 175.419 622.243C175.029 620.812 174.834 619.153 174.834 617.266C174.834 614.729 175.484 612.55 176.786 610.728C178.152 608.841 179.941 607.377 182.153 606.336C184.43 605.295 186.935 604.775 189.668 604.775C192.075 604.775 194.157 605.133 195.913 605.848C197.735 606.499 199.361 607.572 200.793 609.069C202.224 610.5 203.525 612.387 204.696 614.729L202.94 614.924C204.306 612.192 205.802 610.11 207.429 608.679C209.12 607.182 210.91 606.174 212.796 605.653C214.683 605.068 216.57 604.775 218.457 604.775C220.929 604.775 223.206 605.263 225.288 606.239C227.435 607.15 229.289 608.516 230.85 610.338C232.412 612.094 233.615 614.274 234.461 616.876C235.372 619.413 235.828 622.309 235.828 625.562C235.828 629.921 235.112 633.727 233.681 636.98C232.314 640.167 230.33 642.998 227.728 645.47C227.532 645.665 227.337 645.828 227.142 645.958C226.947 646.023 226.752 646.12 226.556 646.251C226.361 646.381 226.134 646.543 225.873 646.739C222.881 649.211 219.432 651.163 215.529 652.594C211.69 654.025 206.941 654.741 201.281 654.741Z" fill="#D90429"/>
<path d="M1138.1 142.996V116.354L1114.88 73.317H1124.44L1142.49 107.571L1154.98 79.5627C1155.9 77.6109 1156.81 76.1145 1157.72 75.0736C1158.69 73.9675 1159.77 73.2194 1160.94 72.829C1162.11 72.4386 1163.38 72.2435 1164.74 72.2435C1166.04 72.2435 1167.18 72.3736 1168.16 72.6338C1169.14 72.829 1169.95 73.0567 1170.6 73.317V80.441C1170.08 80.1808 1169.49 79.9856 1168.84 79.8555C1168.19 79.7254 1167.51 79.6603 1166.79 79.6603C1166.27 79.6603 1165.75 79.7904 1165.23 80.0507C1164.78 80.2458 1164.32 80.6037 1163.87 81.1241C1163.47 81.6446 1163.08 82.2952 1162.69 83.0759L1146.88 115.964V142.996H1138.1Z" fill="#D90429"/>
<path d="M1124.56 402.871C1125.73 399.683 1126.93 396.886 1128.17 394.478C1129.41 392.071 1130.74 389.957 1132.17 388.135C1132.17 387.224 1132.17 386.216 1132.17 385.11C1132.17 384.004 1132.17 382.93 1132.17 381.889V328.703H1140.76V381.597C1141.8 381.206 1142.84 380.913 1143.88 380.718C1144.99 380.523 1146.16 380.425 1147.39 380.425C1151.62 380.425 1154.78 381.499 1156.86 383.646C1159.01 385.728 1160.08 388.428 1160.08 391.746C1160.08 395.129 1158.97 397.992 1156.76 400.334C1154.55 402.676 1151.33 403.847 1147.1 403.847C1144.04 403.847 1141.44 403.261 1139.29 402.09C1137.21 400.919 1135.62 399.39 1134.51 397.504C1133.93 398.61 1133.34 399.878 1132.76 401.31C1132.17 402.741 1131.62 404.237 1131.1 405.799L1124.56 402.871ZM1147 397.211C1148.76 397.211 1150.06 396.723 1150.91 395.747C1151.82 394.771 1152.27 393.568 1152.27 392.136C1152.27 390.445 1151.75 389.176 1150.71 388.33C1149.74 387.484 1148.4 387.062 1146.71 387.062C1145.67 387.062 1144.66 387.257 1143.69 387.647C1142.71 388.037 1141.73 388.623 1140.76 389.404C1140.89 391.746 1141.41 393.633 1142.32 395.064C1143.23 396.495 1144.79 397.211 1147 397.211Z" fill="white"/>
<path d="M1117.59 665.247V595.567H1126.37V625.04H1155.26V595.567H1164.04V649.242C1164.04 651.194 1164.37 652.885 1165.02 654.317C1165.74 655.683 1166.74 656.724 1168.05 657.439C1169.41 658.155 1171.1 658.513 1173.12 658.513C1175.2 658.513 1176.89 658.123 1178.19 657.342C1179.56 656.496 1180.54 655.39 1181.12 654.024C1181.77 652.592 1182.1 650.966 1182.1 649.144V612.938H1190.88V649.144C1190.88 652.332 1190.23 655.227 1188.93 657.83C1187.63 660.367 1185.64 662.384 1182.98 663.88C1180.31 665.377 1176.93 666.125 1172.83 666.125C1168.99 666.125 1165.77 665.442 1163.17 664.076C1160.56 662.644 1158.58 660.66 1157.21 658.123C1155.91 655.52 1155.26 652.495 1155.26 649.047V632.749H1126.37V665.247H1117.59Z" fill="#D90429"/>
</svg>
