<svg width="426" height="51" viewBox="0 0 426 51" fill="none" xmlns="http://www.w3.org/2000/svg">
<path d="M7.49907 39.0005V16.0884H6.51928C5.74047 16.0884 5.16264 16.2894 4.78579 16.6913C4.40895 17.0682 4.22053 17.5455 4.22053 18.1233C4.22053 18.5504 4.25821 18.9273 4.33358 19.2539C4.43407 19.5805 4.522 19.8317 4.59737 20.0076H0.715881C0.615389 19.7815 0.514898 19.48 0.414406 19.1031C0.313914 18.7012 0.263669 18.2866 0.263669 17.8595C0.263669 16.7541 0.464652 15.7618 0.866619 14.8825C1.29371 14.0032 1.97203 13.3249 2.90158 12.8475C3.85625 12.3451 5.08727 12.0938 6.59464 12.0938H15.5258C19.0179 12.0938 21.5553 12.8224 23.1381 14.2795C24.746 15.7367 25.5499 17.7465 25.5499 20.309C25.5499 21.4647 25.374 22.5701 25.0223 23.6253C24.6706 24.6553 24.0802 25.5848 23.2511 26.4139C22.4221 27.243 21.3292 27.8962 19.9726 28.3735C18.6411 28.8508 16.983 29.0895 14.9983 29.0895H12.3227V39.0005H7.49907ZM14.5084 25.095C15.8399 25.095 16.9578 24.9442 17.8623 24.6427C18.7667 24.3161 19.4576 23.8137 19.9349 23.1354C20.4123 22.457 20.6509 21.5777 20.6509 20.4975C20.6509 19.0152 20.2113 17.9098 19.332 17.1812C18.4778 16.4527 17.1086 16.0884 15.2244 16.0884H12.3227V25.095H14.5084ZM46.6384 18.1987C47.1158 18.1987 47.6057 18.249 48.1081 18.3494C48.6106 18.4499 49.0125 18.5756 49.314 18.7263V22.344C49.1382 22.2937 48.9372 22.2561 48.7111 22.2309C48.5101 22.1807 48.3091 22.1556 48.1081 22.1556C47.7564 22.1556 47.4298 22.2435 47.1283 22.4194C46.852 22.5952 46.5756 22.8967 46.2993 23.3238C46.048 23.7509 45.7717 24.3915 45.4702 25.2457L39.4784 41.563C38.7498 43.5729 37.7198 45.1556 36.3883 46.3113C35.0819 47.4669 33.361 48.0447 31.2255 48.0447C30.7231 48.0447 30.2206 48.0071 29.7181 47.9317C29.2408 47.8814 28.8388 47.8186 28.5122 47.7433V43.9748C28.7635 44.0251 29.0901 44.0753 29.492 44.1256C29.9191 44.1758 30.3085 44.2009 30.6602 44.2009C31.4139 44.2009 32.0671 44.0502 32.6198 43.7487C33.1977 43.4724 33.6876 43.0704 34.0895 42.5428C34.5166 42.0152 34.8558 41.3746 35.107 40.6209L35.71 38.9251L27.5701 18.5756H32.6952L36.3506 28.8634C36.6521 29.6422 36.9284 30.4713 37.1796 31.3506C37.4309 32.2047 37.6193 33.0464 37.7449 33.8754H37.8956C38.0213 33.2725 38.2097 32.5439 38.4609 31.6897C38.7373 30.8104 39.0387 29.906 39.3653 28.9764L41.7018 22.4194C42.0284 21.5652 42.3926 20.8241 42.7946 20.196C43.2217 19.5428 43.7493 19.0529 44.3774 18.7263C45.0054 18.3746 45.7591 18.1987 46.6384 18.1987ZM68.8313 34.3653C69.6352 36.4254 70.3763 37.9076 71.0547 38.8121V39.0005H65.2513C64.8995 38.4729 64.5729 37.9202 64.2715 37.3424C63.9951 36.7394 63.6308 35.8852 63.1786 34.7798C62.4752 33.0966 61.7592 31.9158 61.0306 31.2375C60.3021 30.5592 59.4353 30.22 58.4304 30.22H57.4129V34.1015L57.6767 39.0005H51.8733L52.1371 34.1015V17.332L51.8733 12.6214H57.4129V26.64H58.0912L60.6538 23.9267L63.2917 20.1583H69.698L62.9148 27.1676C64.2212 27.6198 65.3266 28.3986 66.2311 29.504C67.1355 30.6094 68.0022 32.2299 68.8313 34.3653ZM61.9524 9.89724H59.3145L53.285 4.99826H58.7492L60.6335 6.95785L62.5177 4.99826H67.9819L61.9524 9.89724ZM87.0788 39.7919C84.1645 39.7919 81.5894 39.2015 79.3535 38.0207C77.1427 36.8148 75.4217 35.1567 74.1907 33.0464C72.9848 30.9109 72.3819 28.4991 72.3819 25.811C72.3819 23.1228 72.9848 20.7236 74.1907 18.6132C75.4217 16.4778 77.1427 14.8197 79.3535 13.6389C81.5894 12.433 84.1645 11.8301 87.0788 11.8301C89.993 11.8301 92.5556 12.433 94.7664 13.6389C97.0023 14.8197 98.7232 16.4778 99.9291 18.6132C101.16 20.7236 101.776 23.1228 101.776 25.811C101.776 28.4991 101.16 30.9109 99.9291 33.0464C98.7232 35.1567 97.0023 36.8148 94.7664 38.0207C92.5556 39.2015 89.993 39.7919 87.0788 39.7919ZM87.0788 35.0813C88.7871 35.0813 90.3071 34.7045 91.6386 33.9508C92.9952 33.172 94.0504 32.0791 94.8041 30.6722C95.5578 29.2654 95.9346 27.6449 95.9346 25.811C95.9346 23.977 95.5578 22.3566 94.8041 20.9497C94.0504 19.5428 92.9952 18.4625 91.6386 17.7088C90.3071 16.93 88.7871 16.5406 87.0788 16.5406C85.3704 16.5406 83.8379 16.93 82.4813 17.7088C81.1498 18.4625 80.1072 19.5428 79.3535 20.9497C78.5998 22.3566 78.2229 23.977 78.2229 25.811C78.2229 27.6449 78.5998 29.2654 79.3535 30.6722C80.1072 32.0791 81.1498 33.172 82.4813 33.9508C83.8379 34.7045 85.3704 35.0813 87.0788 35.0813ZM99.4622 49.5521C97.4524 49.5521 95.9199 49.0873 94.8647 48.1578C93.8096 47.2534 93.282 46.0349 93.282 44.5024C93.282 41.8896 94.7893 39.93 97.8041 38.6236V38.2468L101.949 39.0005C100.367 39.5029 99.2235 40.1185 98.5201 40.847C97.7915 41.6007 97.4273 42.4046 97.4273 43.2588C97.4273 44.0125 97.6785 44.6155 98.1809 45.0677C98.6583 45.545 99.324 45.7837 100.178 45.7837C100.781 45.7837 101.372 45.6581 101.949 45.4068V49.1753C101.171 49.4265 100.342 49.5521 99.4622 49.5521ZM112.614 39.0005V16.1638H109.599C108.82 16.1638 108.243 16.3522 107.866 16.729C107.489 17.1059 107.301 17.5832 107.301 18.161C107.301 18.563 107.338 18.9273 107.414 19.2539C107.514 19.5805 107.602 19.8317 107.677 20.0076H103.796C103.695 19.7815 103.595 19.48 103.494 19.1031C103.394 18.7012 103.344 18.2866 103.344 17.8595C103.344 16.7541 103.545 15.7618 103.947 14.8825C104.374 14.0032 105.052 13.3249 105.982 12.8475C106.936 12.3451 108.167 12.0938 109.675 12.0938H125.163V16.1638H117.438V39.0005H112.614ZM133.249 39.0005V16.0884H132.269C131.49 16.0884 130.912 16.2894 130.535 16.6913C130.158 17.0682 129.97 17.5455 129.97 18.1233C129.97 18.5504 130.008 18.9273 130.083 19.2539C130.184 19.5805 130.272 19.8317 130.347 20.0076H126.465C126.365 19.7815 126.264 19.48 126.164 19.1031C126.089 18.7012 126.051 18.2866 126.051 17.8595C126.051 16.7541 126.252 15.7618 126.654 14.8825C127.081 14.0032 127.759 13.3249 128.689 12.8475C129.618 12.3451 130.849 12.0938 132.382 12.0938H141.388C143.7 12.0938 145.647 12.3199 147.23 12.7722C148.812 13.1992 149.993 13.9027 150.772 14.8825C151.576 15.8623 151.978 17.1812 151.978 18.8393C151.978 20.397 151.588 21.7034 150.81 22.7585C150.031 23.8137 148.913 24.4669 147.456 24.7181V24.9065C148.461 25.0824 149.352 25.409 150.131 25.8863C150.935 26.3385 151.563 27.0043 152.015 27.8836C152.493 28.7378 152.731 29.8683 152.731 31.2752C152.731 32.9082 152.342 34.3025 151.563 35.4582C150.81 36.6138 149.704 37.4931 148.247 38.0961C146.79 38.699 145.069 39.0005 143.084 39.0005H133.249ZM142.444 34.9683C144.403 34.9683 145.76 34.5914 146.514 33.8377C147.292 33.084 147.682 32.0791 147.682 30.823C147.682 30.019 147.518 29.3282 147.192 28.7503C146.865 28.1725 146.3 27.7329 145.496 27.4314C144.692 27.1048 143.599 26.9415 142.217 26.9415H138.072V34.9683H142.444ZM141.991 23.06C143.901 23.06 145.22 22.7585 145.948 22.1556C146.677 21.5526 147.041 20.6608 147.041 19.48C147.041 18.2741 146.601 17.4073 145.722 16.8798C144.868 16.3522 143.499 16.0884 141.615 16.0884H138.072V23.06H141.991ZM176.04 28.7503C176.04 31.0114 175.638 32.9333 174.834 34.516C174.056 36.0988 172.925 37.3047 171.443 38.1337C169.986 38.9628 168.252 39.3773 166.242 39.3773C164.383 39.3773 162.725 38.9628 161.268 38.1337C159.836 37.3047 158.693 36.0988 157.839 34.516C157.01 32.9333 156.595 31.0114 156.595 28.7503C156.595 25.3587 157.462 22.7585 159.195 20.9497C160.954 19.1157 163.341 18.1987 166.356 18.1987C167.737 18.1987 169.019 18.4248 170.199 18.877C171.38 19.3041 172.385 19.9322 173.214 20.7612C173.943 20.5351 174.495 20.1709 174.872 19.6684C175.249 19.1659 175.513 18.563 175.664 17.8595C175.814 17.131 175.89 16.3396 175.89 15.4854H180.676L180.939 15.9C180.713 17.0807 180.387 18.1736 179.96 19.1785C179.532 20.1583 178.93 20.9999 178.151 21.7034C177.372 22.4068 176.317 22.9595 174.985 23.3615C175.312 24.09 175.563 24.9065 175.739 25.811C175.94 26.7154 176.04 27.6952 176.04 28.7503ZM161.457 28.7503C161.457 30.2075 161.62 31.4511 161.946 32.4811C162.298 33.486 162.826 34.2523 163.529 34.7798C164.258 35.2823 165.187 35.5335 166.318 35.5335C167.473 35.5335 168.403 35.2823 169.106 34.7798C169.81 34.2523 170.325 33.486 170.652 32.4811C171.003 31.4762 171.179 30.2326 171.179 28.7503C171.179 27.2681 171.016 26.0371 170.689 25.0573C170.363 24.0524 169.835 23.2987 169.106 22.7962C168.378 22.2937 167.436 22.0425 166.28 22.0425C164.597 22.0425 163.366 22.6078 162.587 23.7383C161.833 24.8688 161.457 26.5395 161.457 28.7503ZM188.336 10.1719C188.914 10.1719 189.454 10.2347 189.956 10.3604C190.459 10.4608 190.836 10.5739 191.087 10.6995V14.4303C190.886 14.3549 190.597 14.2795 190.22 14.2042C189.868 14.1037 189.479 14.0534 189.052 14.0534C188.474 14.0534 188.022 14.2167 187.695 14.5433C187.394 14.8699 187.243 15.4101 187.243 16.1638V17.9726C187.243 18.4499 187.218 18.9901 187.168 19.593C187.117 20.1709 187.067 20.7361 187.017 21.2888H187.243C187.595 20.711 188.047 20.196 188.6 19.7438C189.152 19.2664 189.805 18.8896 190.559 18.6132C191.338 18.3369 192.23 18.1987 193.235 18.1987C194.818 18.1987 196.199 18.6007 197.38 19.4046C198.586 20.1834 199.516 21.3516 200.169 22.9093C200.847 24.4669 201.186 26.4139 201.186 28.7503C201.186 31.0616 200.847 33.0087 200.169 34.5914C199.516 36.1742 198.599 37.3675 197.418 38.1714C196.237 38.9754 194.843 39.3773 193.235 39.3773C192.23 39.3773 191.338 39.2517 190.559 39.0005C189.805 38.7493 189.165 38.4227 188.637 38.0207C188.11 37.6187 187.645 37.1791 187.243 36.7017H187.017C187.092 37.154 187.142 37.6564 187.168 38.2091C187.218 38.7618 187.243 39.2894 187.243 39.7919V48.0447H182.495V16.2014C182.495 14.7946 182.721 13.6515 183.173 12.7722C183.65 11.8929 184.329 11.2397 185.208 10.8126C186.087 10.3855 187.13 10.1719 188.336 10.1719ZM191.878 22.0425C190.773 22.0425 189.881 22.2686 189.203 22.7208C188.524 23.1479 188.034 23.8137 187.733 24.7181C187.431 25.6225 187.268 26.7531 187.243 28.1097V28.7127C187.243 30.1698 187.381 31.4008 187.657 32.4057C187.959 33.4106 188.449 34.1769 189.127 34.7045C189.831 35.2321 190.773 35.4958 191.954 35.4958C192.958 35.4958 193.775 35.2195 194.403 34.6668C195.056 34.1141 195.534 33.3353 195.835 32.3304C196.162 31.3003 196.325 30.0819 196.325 28.675C196.325 26.5646 195.961 24.9317 195.232 23.776C194.529 22.6203 193.411 22.0425 191.878 22.0425ZM206.536 39.0005V12.0938H211.36V22.9469H221.083V12.0938H225.906V31.1621C225.906 32.1168 226.019 32.9082 226.245 33.5363C226.497 34.1643 226.873 34.6291 227.376 34.9306C227.904 35.2321 228.569 35.3828 229.373 35.3828C230.202 35.3828 230.868 35.2321 231.37 34.9306C231.898 34.604 232.275 34.1141 232.501 33.4609C232.752 32.7826 232.878 31.9284 232.878 30.8983V18.5756H237.701V30.936C237.701 32.7198 237.4 34.2397 236.797 35.4958C236.194 36.752 235.265 37.7192 234.008 38.3975C232.777 39.0507 231.22 39.3773 229.336 39.3773C227.476 39.3773 225.931 39.0884 224.7 38.5106C223.469 37.9328 222.552 37.0535 221.949 35.8727C221.372 34.6919 221.083 33.2222 221.083 31.4636V27.0545H211.36V39.0005H206.536ZM252.166 18.1987C254.804 18.1987 256.801 18.7765 258.158 19.9322C259.54 21.0627 260.231 22.8464 260.231 25.2834V39.0005H256.877L255.935 36.1742H255.784C255.206 36.9027 254.603 37.5182 253.975 38.0207C253.372 38.498 252.669 38.8372 251.865 39.0382C251.086 39.2643 250.131 39.3773 249.001 39.3773C247.795 39.3773 246.702 39.1512 245.722 38.699C244.767 38.2468 244.014 37.5559 243.461 36.6264C242.908 35.6717 242.632 34.4784 242.632 33.0464C242.632 30.936 243.398 29.3533 244.931 28.2981C246.488 27.2178 248.837 26.6274 251.978 26.527L255.52 26.4139V25.3964C255.52 24.09 255.206 23.1605 254.578 22.6078C253.95 22.0551 253.071 21.7787 251.94 21.7787C250.91 21.7787 249.918 21.9295 248.963 22.2309C248.008 22.5324 247.079 22.8841 246.174 23.2861L244.667 19.9699C245.672 19.4423 246.815 19.0152 248.096 18.6886C249.403 18.362 250.759 18.1987 252.166 18.1987ZM253.033 29.4287C250.948 29.504 249.503 29.8683 248.699 30.5215C247.895 31.1496 247.493 32.0038 247.493 33.084C247.493 34.0387 247.782 34.7296 248.36 35.1567C248.938 35.5838 249.679 35.7973 250.583 35.7973C251.965 35.7973 253.133 35.4079 254.088 34.6291C255.043 33.8252 255.52 32.6444 255.52 31.0868V29.3533L253.033 29.4287ZM254.465 10.1343C254.741 10.687 255.055 11.3025 255.407 11.9808C255.784 12.6591 256.161 13.3249 256.537 13.9781C256.939 14.6313 257.316 15.1965 257.668 15.6739V16.1638H255.105C254.678 15.812 254.201 15.3975 253.673 14.9202C253.146 14.4177 252.606 13.8901 252.053 13.3374C251.5 12.7847 251.01 12.2571 250.583 11.7547C250.156 11.2522 249.842 10.8377 249.641 10.5111V10.1343H254.465ZM247.418 10.1343C247.694 10.687 248.008 11.3025 248.36 11.9808C248.737 12.6591 249.114 13.3249 249.49 13.9781C249.892 14.6313 250.269 15.1965 250.621 15.6739V16.1638H248.058C247.631 15.812 247.141 15.3975 246.589 14.9202C246.061 14.4177 245.521 13.8901 244.968 13.3374C244.416 12.7847 243.926 12.2571 243.499 11.7547C243.097 11.2522 242.795 10.8377 242.594 10.5111V10.1343H247.418Z" fill="#D90429"/>
<path d="M283.392 28.373H287.65V24.4161H283.392V28.373ZM276.872 12.0934C274.511 12.0934 272.564 12.3823 271.031 12.9601C269.499 13.5379 268.356 14.4172 267.602 15.598C266.848 16.7537 266.471 18.2233 266.471 20.0071C266.471 21.3135 266.723 22.4314 267.225 23.361C267.702 24.2905 268.331 25.0693 269.109 25.6974C269.888 26.3004 270.73 26.7903 271.634 27.1671L263.909 39H269.335L275.779 28.373H279.699V39H284.522V12.0934H276.872ZM277.174 16.1256H279.699V24.4161H277.023C275.692 24.4161 274.611 24.2528 273.782 23.9262C272.953 23.5996 272.35 23.1223 271.973 22.4942C271.571 21.8662 271.37 21.0874 271.37 20.1578C271.37 19.178 271.584 18.3992 272.011 17.8214C272.438 17.2184 273.079 16.7913 273.933 16.5401C274.762 16.2638 275.842 16.1256 277.174 16.1256Z" fill="#D90429"/>
<path d="M307.594 10.1714C308.172 10.1714 308.712 10.2343 309.215 10.3599C309.717 10.4604 310.094 10.5734 310.345 10.699V14.4298C310.144 14.3544 309.855 14.279 309.478 14.2037C309.127 14.1032 308.737 14.0529 308.31 14.0529C307.732 14.0529 307.28 14.2162 306.953 14.5428C306.652 14.8694 306.501 15.4096 306.501 16.1633V17.9721C306.501 18.4495 306.476 18.9896 306.426 19.5925C306.376 20.1704 306.325 20.7356 306.275 21.2883H306.501C306.853 20.7105 307.305 20.1955 307.858 19.7433C308.411 19.2659 309.064 18.8891 309.817 18.6128C310.596 18.3364 311.488 18.1982 312.493 18.1982C314.076 18.1982 315.458 18.6002 316.638 19.4041C317.844 20.1829 318.774 21.3511 319.427 22.9088C320.105 24.4664 320.444 26.4134 320.444 28.7498C320.444 31.0612 320.105 33.0082 319.427 34.5909C318.774 36.1737 317.857 37.367 316.676 38.1709C315.495 38.9749 314.101 39.3768 312.493 39.3768C311.488 39.3768 310.596 39.2512 309.817 39C309.064 38.7488 308.423 38.4222 307.896 38.0202C307.368 37.6182 306.903 37.1786 306.501 36.7013H306.275C306.351 37.1535 306.401 37.6559 306.426 38.2086C306.476 38.7613 306.501 39.2889 306.501 39.7914V48.0443H301.753V16.2009C301.753 14.7941 301.979 13.651 302.431 12.7717C302.909 11.8924 303.587 11.2392 304.466 10.8121C305.346 10.385 306.388 10.1714 307.594 10.1714ZM311.136 22.042C310.031 22.042 309.139 22.2681 308.461 22.7203C307.783 23.1474 307.293 23.8132 306.991 24.7176C306.69 25.622 306.526 26.7526 306.501 28.1092V28.7122C306.501 30.1693 306.639 31.4003 306.916 32.4052C307.217 33.4102 307.707 34.1764 308.385 34.704C309.089 35.2316 310.031 35.4954 311.212 35.4954C312.217 35.4954 313.033 35.219 313.661 34.6663C314.314 34.1136 314.792 33.3348 315.093 32.3299C315.42 31.2998 315.583 30.0814 315.583 28.6745C315.583 26.5642 315.219 24.9312 314.49 23.7755C313.787 22.6199 312.669 22.042 311.136 22.042ZM341.095 39H325.795V12.0934H341.095V16.1256H330.618V22.9841H340.416V27.0164H330.618V34.9301H341.095V39ZM333.784 3.91584C335.166 3.91584 336.334 4.15451 337.288 4.63184C338.268 5.10918 339.022 5.77494 339.55 6.62912C340.077 7.4833 340.366 8.50077 340.416 9.68155H337.703C337.653 8.97811 337.439 8.46309 337.062 8.13649C336.711 7.80989 336.246 7.59635 335.668 7.49586C335.115 7.39537 334.475 7.34512 333.746 7.34512C333.118 7.34512 332.515 7.40793 331.937 7.53354C331.359 7.65916 330.87 7.88526 330.468 8.21186C330.091 8.53846 329.852 9.02836 329.752 9.68155H327.001C327.101 8.5259 327.428 7.52098 327.98 6.6668C328.558 5.81262 329.337 5.14686 330.317 4.66953C331.322 4.16707 332.477 3.91584 333.784 3.91584ZM362.598 12.0934V15.3719L354.157 23.4364C357.272 23.562 359.646 24.2905 361.279 25.622C362.937 26.9536 363.766 28.8252 363.766 31.237C363.766 32.7946 363.364 34.189 362.56 35.42C361.756 36.651 360.525 37.6182 358.867 38.3217C357.209 39.0251 355.099 39.3768 352.536 39.3768C351.029 39.3768 349.597 39.2512 348.24 39C346.884 38.7739 345.627 38.4096 344.472 37.9072V33.7242C345.703 34.302 347.022 34.7417 348.429 35.0431C349.836 35.3446 351.142 35.4954 352.348 35.4954C353.931 35.4954 355.199 35.3195 356.154 34.9678C357.134 34.5909 357.837 34.0633 358.264 33.385C358.691 32.7067 358.905 31.9153 358.905 31.0109C358.905 30.1065 358.629 29.3528 358.076 28.7498C357.523 28.1469 356.669 27.6947 355.513 27.3932C354.358 27.0666 352.863 26.9033 351.029 26.9033H348.692V23.3987L356.154 16.1633H345.301V12.0934H362.598ZM366.438 39.0377C366.815 38.1835 367.191 37.4047 367.568 36.7013C367.97 35.9978 368.372 35.3572 368.774 34.7793C368.648 34.3774 368.573 33.8875 368.548 33.3097C368.523 32.7067 368.51 32.0786 368.51 31.4254V10.3599H373.259V30.5587C373.61 30.3828 374.025 30.2321 374.502 30.1065C374.979 29.9809 375.482 29.9181 376.009 29.9181C377.592 29.9181 378.811 30.3326 379.665 31.1616C380.519 31.9656 380.946 33.0961 380.946 34.5532C380.946 35.9852 380.469 37.1535 379.514 38.0579C378.559 38.9372 377.153 39.3768 375.293 39.3768C374.188 39.3768 373.208 39.2387 372.354 38.9623C371.525 38.6608 370.859 38.2338 370.357 37.681C370.131 38.0328 369.905 38.4222 369.679 38.8493C369.478 39.2764 369.264 39.7537 369.038 40.2813L366.438 39.0377ZM375.595 36.3244C376.198 36.3244 376.65 36.1737 376.952 35.8722C377.278 35.5456 377.442 35.1311 377.442 34.6286C377.442 34.0759 377.278 33.6614 376.952 33.385C376.625 33.1087 376.16 32.9705 375.557 32.9705C375.155 32.9705 374.753 33.0459 374.351 33.1966C373.949 33.3473 373.585 33.5734 373.259 33.8749C373.309 34.6286 373.522 35.2316 373.899 35.6838C374.276 36.1109 374.841 36.3244 375.595 36.3244ZM384.603 39V12.0934H401.184V16.1633H389.427V22.8334H392.328C394.916 22.8334 396.989 23.1726 398.546 23.8509C400.129 24.5292 401.272 25.4713 401.976 26.6772C402.679 27.8831 403.031 29.2523 403.031 30.7848C403.031 32.4932 402.666 33.9629 401.938 35.1939C401.209 36.4249 400.066 37.367 398.509 38.0202C396.951 38.6734 394.929 39 392.441 39H384.603ZM392.178 35.0055C394.162 35.0055 395.645 34.6789 396.624 34.0257C397.629 33.3725 398.132 32.2922 398.132 30.7848C398.132 29.7548 397.88 28.9634 397.378 28.4107C396.901 27.8329 396.185 27.4309 395.23 27.2048C394.3 26.9536 393.12 26.8279 391.688 26.8279H389.427V35.0055H392.178ZM423.452 31.6892C423.452 32.8951 423.565 34.1262 423.791 35.3823C424.017 36.6133 424.331 37.7564 424.733 38.8116V39H419.533C419.181 38.397 418.917 37.6434 418.742 36.7389C417.862 37.7187 416.882 38.4473 415.802 38.9246C414.747 39.3768 413.529 39.603 412.147 39.603C410.916 39.603 409.823 39.3643 408.868 38.8869C407.939 38.3845 407.21 37.7187 406.683 36.8897C406.18 36.0606 405.929 35.1436 405.929 34.1387C405.929 31.8274 406.946 30.119 408.981 29.0136C411.041 27.9082 413.667 27.3555 416.857 27.3555H418.289V26.338C418.289 25.4085 418.026 24.6799 417.498 24.1524C416.97 23.5996 416.254 23.3233 415.35 23.3233C414.471 23.3233 413.704 23.5745 413.051 24.077C412.423 24.5794 412.059 25.3331 411.958 26.338L406.494 25.622C406.846 23.7629 407.763 22.2556 409.245 21.0999C410.727 19.9443 412.762 19.3664 415.35 19.3664C417.887 19.3664 419.872 20.0699 421.304 21.4768C422.736 22.8836 423.452 24.8181 423.452 27.2802V31.6892ZM413.843 35.4577C414.747 35.4577 415.614 35.219 416.443 34.7417C417.272 34.2643 417.887 33.5986 418.289 32.7444V30.6718H417.234C415.249 30.6718 413.78 30.923 412.825 31.4254C411.87 31.9279 411.393 32.6188 411.393 33.4981C411.393 34.0759 411.607 34.5532 412.034 34.9301C412.461 35.2818 413.064 35.4577 413.843 35.4577ZM415.176 17.699C414.121 17.699 413.267 17.385 412.614 16.7569C411.935 16.1037 411.596 15.2872 411.596 14.3074C411.596 13.3276 411.935 12.5237 412.614 11.8956C413.267 11.2424 414.121 10.9158 415.176 10.9158C416.231 10.9158 417.098 11.2424 417.776 11.8956C418.43 12.5237 418.756 13.3276 418.756 14.3074C418.756 15.2872 418.43 16.1037 417.776 16.7569C417.098 17.385 416.231 17.699 415.176 17.699ZM422.326 8.38008H408.006V4.61164H422.326V8.38008Z" fill="#D90429"/>
</svg>
