<svg width="207" height="38" viewBox="0 0 207 38" fill="none" xmlns="http://www.w3.org/2000/svg">
<path d="M8.78283 20.619C8.78283 22.2022 9.07183 23.3958 9.64981 24.2C10.2529 24.979 11.2079 25.3685 12.5146 25.3685C13.7962 25.3685 14.7888 25.1047 15.4925 24.5769C16.2212 24.0241 16.7364 23.2325 17.038 22.2022C17.3646 21.1719 17.528 19.9028 17.528 18.395V8.36824H22.2775V28.8364H18.6211L17.9426 26.1601H17.6788C17.2516 26.8637 16.6987 27.4417 16.0202 27.8941C15.3668 28.3464 14.6255 28.6731 13.7962 28.8741C12.9921 29.1003 12.1377 29.2134 11.233 29.2134C9.75033 29.2134 8.46871 28.9495 7.38813 28.4218C6.30755 27.8941 5.47827 27.0773 4.90029 25.9716C4.3223 24.8659 4.03331 23.4587 4.03331 21.7498V14.0224C4.03331 13.1178 3.8574 12.477 3.50559 12.1C3.15377 11.7231 2.62605 11.5346 1.92241 11.5346C1.59573 11.5346 1.26904 11.5723 0.942352 11.6477C0.615665 11.6979 0.301543 11.7733 -1.37558e-05 11.8738V8.51902C0.402062 8.36825 0.892092 8.2426 1.47008 8.14208C2.07319 8.04156 2.6763 7.9913 3.27942 7.9913C4.41026 7.9913 5.37775 8.21747 6.1819 8.6698C7.01119 9.09701 7.65199 9.76295 8.10433 10.6676C8.55667 11.5723 8.78283 12.7408 8.78283 14.1732V20.619ZM46.5296 7.9913C46.8311 7.9913 47.183 8.01643 47.585 8.06669C47.9871 8.09182 48.3264 8.12951 48.6028 8.17977L48.2258 12.6654C47.9745 12.59 47.5348 12.5398 46.9065 12.5147C46.3034 12.4644 45.7254 12.4393 45.1726 12.4393C44.6197 12.4393 43.9663 12.5272 43.2125 12.7031C42.4837 12.879 41.7675 13.2309 41.0639 13.7586C40.6869 13.4068 40.222 13.1303 39.6692 12.9293C39.1414 12.7283 38.4629 12.6277 37.6336 12.6277C36.93 12.6277 36.2264 12.8288 35.5227 13.2309C34.8442 13.6329 34.2788 14.2486 33.8265 15.0779C33.3742 15.9072 33.148 16.9626 33.148 18.2442V28.8364H28.3985V8.36824H32.0171L32.6957 11.8738H32.9595C33.3867 11.0948 33.8893 10.4163 34.4673 9.83834C35.0453 9.26035 35.6987 8.80802 36.4274 8.48133C37.1813 8.15464 37.9855 7.9913 38.8399 7.9913C39.1917 7.9913 39.5686 8.01643 39.9707 8.06669C40.3979 8.11695 40.7623 8.19234 41.0639 8.29286V11.2707C41.5413 10.5922 42.069 10.0142 42.647 9.53678C43.225 9.05931 43.8407 8.68237 44.4941 8.40594C45.1726 8.12951 45.8511 7.9913 46.5296 7.9913ZM58.2052 3.82133e-05C58.7832 3.82133e-05 59.3235 0.0628625 59.8261 0.188511C60.3287 0.28903 60.7056 0.402114 60.9569 0.527763V4.25953C60.7559 4.18414 60.4669 4.10875 60.0899 4.03336C59.7381 3.93284 59.3486 3.88258 58.9214 3.88258C58.3434 3.88258 57.8911 4.04593 57.5644 4.37261C57.2628 4.6993 57.1121 5.23959 57.1121 5.99348V7.80283C57.1121 8.28029 57.0869 8.82058 57.0367 9.42369C56.9864 10.0017 56.9361 10.5671 56.8859 11.12H57.1121C57.4639 10.542 57.9162 10.0268 58.4691 9.57447C59.0219 9.09701 59.6753 8.72006 60.4292 8.44363C61.2082 8.16721 62.1003 8.02899 63.1055 8.02899C64.6887 8.02899 66.0708 8.43107 67.2519 9.23522C68.4581 10.0142 69.3879 11.1828 70.0413 12.7408C70.7198 14.2989 71.0591 16.2464 71.0591 18.5835C71.0591 20.8954 70.7198 22.843 70.0413 24.4262C69.3879 26.0093 68.4707 27.203 67.2896 28.0071C66.1085 28.8113 64.7138 29.2134 63.1055 29.2134C62.1003 29.2134 61.2082 29.0877 60.4292 28.8364C59.6753 28.5851 59.0345 28.2584 58.5068 27.8564C57.979 27.4543 57.5141 27.0145 57.1121 26.5371H56.8859C56.9613 26.9894 57.0115 27.492 57.0367 28.0448C57.0869 28.5977 57.1121 29.1254 57.1121 29.628V37.8831H52.3625V6.03118C52.3625 4.62391 52.5887 3.48051 53.041 2.60097C53.5185 1.72143 54.197 1.06805 55.0765 0.640848C55.9561 0.213641 56.999 3.82133e-05 58.2052 3.82133e-05ZM61.7485 11.8738C60.6428 11.8738 59.7507 12.1 59.0722 12.5523C58.3937 12.9796 57.9036 13.6455 57.6021 14.5502C57.3005 15.4548 57.1372 16.5857 57.1121 17.9427V18.5458C57.1121 20.0033 57.2503 21.2347 57.5267 22.2399C57.8282 23.2451 58.3183 24.0115 58.9968 24.5392C59.7004 25.067 60.6428 25.3308 61.8239 25.3308C62.8291 25.3308 63.6458 25.0544 64.274 24.5015C64.9274 23.9487 65.4049 23.1697 65.7064 22.1645C66.0331 21.1342 66.1965 19.9154 66.1965 18.5081C66.1965 16.3972 65.8321 14.7638 65.1033 13.6078C64.3997 12.4518 63.2814 11.8738 61.7485 11.8738ZM81.8388 29.4395C79.7531 29.4395 78.0945 28.7736 76.8631 27.4417C75.6569 26.0847 75.0538 24.1749 75.0538 21.7121V14.7009L74.7899 9.98911H80.5949L80.3311 14.7009V21.1467C80.3311 22.353 80.6326 23.2953 81.2357 23.9738C81.864 24.6523 82.6932 24.9916 83.7236 24.9916C85.357 24.9916 86.7391 24.1874 87.87 22.5791V14.7009L87.6061 9.98911H93.4111L93.1472 14.7009V23.9361L93.4111 28.8364H88.3223L88.0585 26.5747C86.3496 28.4846 84.2764 29.4395 81.8388 29.4395ZM85.4198 7.72744H82.7812L76.7501 2.82713H82.2158L84.1005 4.78726L85.9852 2.82713H91.451L85.4198 7.72744ZM103.156 28.8364V5.91809H102.176C101.397 5.91809 100.819 6.11913 100.442 6.52121C100.065 6.89816 99.8763 7.37562 99.8763 7.9536C99.8763 8.38081 99.914 8.75776 99.9894 9.08444C100.09 9.41113 100.178 9.66243 100.253 9.83834H96.3707C96.2702 9.61217 96.1697 9.31061 96.0692 8.93367C95.9938 8.53159 95.9561 8.11695 95.9561 7.68974C95.9561 6.58403 96.1571 5.59141 96.5592 4.71187C96.9864 3.83233 97.6649 3.15382 98.5947 2.67636C99.5245 2.17376 100.756 1.92246 102.289 1.92246H111.298C113.61 1.92246 115.557 2.14863 117.14 2.60097C118.724 3.02817 119.905 3.73181 120.684 4.71187C121.488 5.69193 121.89 7.01124 121.89 8.6698C121.89 10.2278 121.5 11.5346 120.721 12.59C119.942 13.6455 118.824 14.2989 117.367 14.5502V14.7386C118.372 14.9145 119.264 15.2412 120.043 15.7187C120.847 16.171 121.475 16.837 121.928 17.7165C122.405 18.5709 122.644 19.7018 122.644 21.109C122.644 22.7425 122.254 24.1372 121.475 25.2931C120.721 26.4491 119.616 27.3286 118.158 27.9318C116.701 28.5349 114.979 28.8364 112.994 28.8364H103.156ZM112.353 24.8031C114.313 24.8031 115.67 24.4262 116.424 23.6723C117.203 22.9184 117.593 21.9132 117.593 20.6567C117.593 19.8525 117.429 19.1615 117.103 18.5835C116.776 18.0055 116.211 17.5657 115.406 17.2642C114.602 16.9375 113.509 16.7741 112.127 16.7741H107.981V24.8031H112.353ZM111.901 12.8916C113.811 12.8916 115.13 12.59 115.859 11.9869C116.588 11.3838 116.952 10.4917 116.952 9.31061C116.952 8.10438 116.512 7.23741 115.633 6.70968C114.778 6.18196 113.409 5.91809 111.524 5.91809H107.981V12.8916H111.901ZM145.959 18.5835C145.959 20.8452 145.557 22.7676 144.753 24.3508C143.974 25.9339 142.843 27.1402 141.36 27.9694C139.903 28.7987 138.169 29.2134 136.159 29.2134C134.299 29.2134 132.64 28.7987 131.183 27.9694C129.75 27.1402 128.607 25.9339 127.753 24.3508C126.923 22.7676 126.509 20.8452 126.509 18.5835C126.509 15.191 127.376 12.59 129.11 10.7807C130.869 8.94623 133.256 8.02899 136.272 8.02899C137.654 8.02899 138.935 8.25516 140.116 8.7075C141.298 9.1347 142.303 9.76295 143.132 10.5922C143.861 10.3661 144.414 10.0017 144.791 9.49908C145.168 8.99649 145.431 8.39337 145.582 7.68974C145.733 6.96098 145.808 6.16939 145.808 5.31498H150.596L150.859 5.72962C150.633 6.91072 150.307 8.00386 149.879 9.00905C149.452 9.98911 148.849 10.831 148.07 11.5346C147.291 12.2382 146.236 12.7911 144.904 13.1932C145.23 13.9219 145.482 14.7386 145.658 15.6433C145.859 16.548 145.959 17.528 145.959 18.5835ZM131.371 18.5835C131.371 20.041 131.535 21.2849 131.861 22.3153C132.213 23.3204 132.741 24.0869 133.445 24.6146C134.173 25.1172 135.103 25.3685 136.234 25.3685C137.39 25.3685 138.32 25.1172 139.023 24.6146C139.727 24.0869 140.242 23.3204 140.569 22.3153C140.921 21.3101 141.097 20.0661 141.097 18.5835C141.097 17.1008 140.933 15.8695 140.607 14.8894C140.28 13.8842 139.752 13.1303 139.023 12.6277C138.295 12.1251 137.352 11.8738 136.196 11.8738C134.513 11.8738 133.281 12.4393 132.502 13.5701C131.748 14.7009 131.371 16.3721 131.371 18.5835ZM160.67 29.2134C158.735 29.2134 157.052 28.849 155.619 28.1202C154.212 27.3663 153.119 26.2229 152.34 24.69C151.586 23.132 151.209 21.1467 151.209 18.7343C151.209 16.2213 151.624 14.1858 152.453 12.6277C153.307 11.0446 154.476 9.88859 155.959 9.15983C157.441 8.40594 159.137 8.02899 161.047 8.02899C161.424 8.02899 161.789 8.05412 162.14 8.10438C162.492 8.12951 162.832 8.16721 163.158 8.21747V5.95579C163.158 4.57365 163.359 3.44281 163.761 2.56327C164.189 1.68373 164.792 1.04292 165.571 0.640848C166.375 0.213641 167.33 3.82133e-05 168.435 3.82133e-05C168.963 3.82133e-05 169.441 0.0628625 169.868 0.188511C170.32 0.28903 170.672 0.402114 170.923 0.527763V4.25953C170.722 4.18414 170.433 4.10875 170.056 4.03336C169.705 3.93284 169.315 3.88258 168.888 3.88258C168.31 3.88258 167.857 4.04593 167.531 4.37261C167.204 4.67417 167.041 5.17677 167.041 5.8804V9.42369L165.646 13.0424C164.867 12.7408 164.088 12.4895 163.309 12.2885C162.53 12.0623 161.776 11.9492 161.047 11.9492C159.916 11.9492 158.974 12.2005 158.22 12.7031C157.491 13.2057 156.951 13.9596 156.599 14.9648C156.248 15.9449 156.072 17.1888 156.072 18.6966C156.072 20.1541 156.248 21.3729 156.599 22.353C156.976 23.333 157.529 24.0743 158.258 24.5769C158.987 25.0544 159.891 25.2931 160.972 25.2931C162.128 25.2931 163.146 25.1549 164.025 24.8785C164.905 24.6021 165.734 24.2251 166.513 23.7477V27.8564C165.734 28.3338 164.892 28.6731 163.987 28.8741C163.108 29.1003 162.002 29.2134 160.67 29.2134ZM178.114 28.8364V5.99348H175.099C174.32 5.99348 173.742 6.18196 173.365 6.5589C172.988 6.93585 172.799 7.41331 172.799 7.9913C172.799 8.39338 172.837 8.75776 172.912 9.08444C173.013 9.41113 173.101 9.66243 173.176 9.83834H169.294C169.193 9.61217 169.093 9.31061 168.992 8.93367C168.892 8.53159 168.841 8.11695 168.841 7.68974C168.841 6.58403 169.042 5.59141 169.444 4.71187C169.872 3.83233 170.55 3.15382 171.48 2.67636C172.435 2.17376 173.666 1.92246 175.174 1.92246H190.666V5.99348H182.939V28.8364H178.114ZM192.233 28.8741C192.61 28.0197 192.987 27.2407 193.364 26.5371C193.766 25.8334 194.168 25.1926 194.57 24.6146C194.445 24.2126 194.369 23.7225 194.344 23.1445C194.319 22.5414 194.306 21.9132 194.306 21.2598V0.188511H199.056V20.3928C199.408 20.2169 199.822 20.0661 200.3 19.9405C200.777 19.8148 201.28 19.752 201.808 19.752C203.391 19.752 204.61 20.1667 205.464 20.9959C206.318 21.8001 206.746 22.9309 206.746 24.3885C206.746 25.8209 206.268 26.9894 205.313 27.8941C204.358 28.7736 202.951 29.2134 201.091 29.2134C199.986 29.2134 199.006 29.0752 198.151 28.7987C197.322 28.4972 196.656 28.07 196.153 27.5171C195.927 27.8689 195.701 28.2584 195.475 28.6856C195.274 29.1129 195.06 29.5903 194.834 30.118L192.233 28.8741ZM201.393 26.1601C201.996 26.1601 202.448 26.0093 202.75 25.7078C203.077 25.3811 203.24 24.9664 203.24 24.4638C203.24 23.911 203.077 23.4964 202.75 23.2199C202.423 22.9435 201.958 22.8053 201.355 22.8053C200.953 22.8053 200.551 22.8807 200.149 23.0315C199.747 23.1822 199.383 23.4084 199.056 23.71C199.106 24.4638 199.32 25.067 199.697 25.5193C200.074 25.9465 200.639 26.1601 201.393 26.1601Z" fill="#D90429"/>
</svg>
