<svg width="199" height="40" viewBox="0 0 199 40" fill="none" xmlns="http://www.w3.org/2000/svg">
<path d="M24.0426 33.0869C24.0426 33.8406 24.2813 34.4436 24.7586 34.8958C25.2611 35.3731 25.9394 35.6118 26.7936 35.6118C27.3965 35.6118 27.9869 35.4862 28.5647 35.235V39.0034C27.7859 39.2546 26.9569 39.3802 26.0776 39.3802C24.0677 39.3802 22.5352 38.9155 21.4801 37.9859C20.4249 37.0815 19.8973 35.863 19.8973 34.3305C19.8973 31.9439 21.1409 30.1099 23.6281 28.8286H21.97L20.3119 23.3644L19.4451 21.2917H9.04424L8.13981 23.3644L6.4817 28.8286H-1.27678e-05L12.2851 2.44955H16.2796L28.5647 28.8286C26.982 29.3311 25.8264 29.9466 25.0978 30.6751C24.3943 31.4288 24.0426 32.2328 24.0426 33.0869ZM14.2824 9.23273L11.0792 16.5812H17.4102L14.2824 9.23273ZM44.4028 1.50744C46.1865 1.50744 47.7441 1.83403 49.0756 2.48723C50.4323 3.14043 51.4749 4.1579 52.2035 5.53967C52.932 6.8963 53.2963 8.66747 53.2963 10.8532V37.8729H48.4727V11.7199C48.4727 9.68495 48.0456 8.15245 47.1914 7.12241C46.3624 6.09237 45.0057 5.57735 43.1215 5.57735C41.4885 5.57735 40.1821 5.91651 39.2023 6.59483C38.2477 7.24802 37.5568 8.2027 37.1297 9.45884C36.7277 10.6899 36.5268 12.1847 36.5268 13.9433V28.8286H31.7031V1.92196H35.3962L36.1876 5.38893H36.3383C36.891 4.55987 37.5819 3.85643 38.411 3.2786C39.2651 2.70078 40.2073 2.26112 41.2373 1.95965C42.2673 1.65817 43.3225 1.50744 44.4028 1.50744ZM67.8398 8.02683C69.6738 8.02683 71.244 8.40368 72.5504 9.15737C73.8819 9.88593 74.9119 10.9411 75.6405 12.3229C76.3691 13.6795 76.7333 15.3376 76.7333 17.2972V19.709H63.2423C63.2926 21.5681 63.8076 23.0127 64.7874 24.0427C65.7672 25.0476 67.1238 25.5501 68.8573 25.5501C70.1888 25.5501 71.3696 25.4245 72.3996 25.1732C73.4548 24.8969 74.5351 24.5075 75.6405 24.005V27.8111C74.6356 28.2885 73.593 28.6402 72.5127 28.8663C71.4324 29.0924 70.1386 29.2055 68.6312 29.2055C66.6465 29.2055 64.8753 28.8286 63.3177 28.0749C61.7852 27.2961 60.5793 26.1279 59.7 24.5703C58.8458 23.0127 58.4187 21.0782 58.4187 18.7669C58.4187 16.4305 58.8081 14.4709 59.5869 12.8881C60.3909 11.2803 61.4963 10.0744 62.9032 9.27042C64.31 8.44136 65.9556 8.02683 67.8398 8.02683ZM67.8398 11.5315C66.5837 11.5315 65.5536 11.946 64.7497 12.7751C63.9709 13.579 63.5061 14.7849 63.3554 16.3928H72.1358C72.1358 15.4381 71.9725 14.5965 71.6459 13.8679C71.3445 13.1393 70.8797 12.5741 70.2516 12.1721C69.6235 11.745 68.8196 11.5315 67.8398 11.5315ZM67.6514 0.226167C69.0332 0.226167 70.2014 0.464835 71.156 0.942172C72.1358 1.41951 72.8895 2.08526 73.4171 2.93944C73.9447 3.79362 74.2336 4.8111 74.2838 5.99188H71.5706C71.5203 5.28844 71.3068 4.77342 70.9299 4.44682C70.5782 4.12022 70.1134 3.90668 69.5356 3.80618C68.9829 3.70569 68.3423 3.65545 67.6137 3.65545C66.9856 3.65545 66.3827 3.71825 65.8049 3.84387C65.227 3.96948 64.7371 4.19559 64.3352 4.52219C63.9583 4.84879 63.7197 5.33868 63.6192 5.99188H60.8682C60.9687 4.83622 61.2953 3.83131 61.848 2.97713C62.4258 2.12295 63.2046 1.45719 64.1844 0.979856C65.1894 0.477397 66.345 0.226167 67.6514 0.226167ZM93.8441 1.50744C95.3766 1.50744 96.7332 1.87172 97.914 2.60028C99.1199 3.32885 100.062 4.40913 100.74 5.84114C101.419 7.24802 101.758 9.00663 101.758 11.117C101.758 12.9007 101.469 14.6467 100.891 16.3551C100.338 18.0634 99.4591 19.6964 98.2532 21.2541C97.0724 22.7866 95.5273 24.206 93.618 25.5124C91.7338 26.8188 89.4602 27.9367 86.7971 28.8663V37.8729H81.9735V1.92196H85.6666L86.458 5.4643H86.6087C87.0609 4.76086 87.6262 4.10766 88.3045 3.50471C89.0079 2.90176 89.8119 2.42442 90.7163 2.0727C91.6458 1.69586 92.6884 1.50744 93.8441 1.50744ZM92.5628 5.57735C91.2564 5.57735 90.1762 5.91651 89.322 6.59483C88.4678 7.24802 87.8272 8.17757 87.4001 9.38347C86.9981 10.5894 86.7971 12.0339 86.7971 13.7172V24.3819C88.3799 23.7287 89.7867 22.9373 91.0178 22.0077C92.2739 21.0782 93.3416 20.0482 94.2209 18.9176C95.1002 17.762 95.766 16.5309 96.2182 15.2246C96.6704 13.9182 96.8965 12.5615 96.8965 11.1546C96.8965 9.92362 96.7207 8.90614 96.369 8.1022C96.0424 7.27315 95.5525 6.64507 94.8993 6.21798C94.2712 5.79089 93.4924 5.57735 92.5628 5.57735ZM113.249 28.8286V5.99188H110.234C109.455 5.99188 108.877 6.1803 108.5 6.55714C108.124 6.93399 107.935 7.41132 107.935 7.98915C107.935 8.39112 107.973 8.7554 108.048 9.082C108.149 9.40859 108.237 9.65982 108.312 9.83569H104.43C104.33 9.60958 104.229 9.3081 104.129 8.93126C104.028 8.52929 103.978 8.11476 103.978 7.68767C103.978 6.58227 104.179 5.58991 104.581 4.71061C105.008 3.83131 105.687 3.15299 106.616 2.67565C107.571 2.17319 108.802 1.92196 110.309 1.92196H125.798V5.99188H118.072V28.8286H113.249ZM135.315 28.8286V18.5408L126.384 1.92196H131.584L137.727 13.7925L141.533 5.38893C141.935 4.50963 142.35 3.79362 142.777 3.24092C143.229 2.66309 143.756 2.236 144.359 1.95965C144.962 1.6833 145.666 1.54512 146.47 1.54512C147.022 1.54512 147.525 1.60793 147.977 1.73354C148.454 1.83403 148.844 1.94709 149.145 2.0727V5.87883C148.969 5.77833 148.743 5.70296 148.467 5.65272C148.191 5.57735 147.939 5.53967 147.713 5.53967C147.387 5.53967 147.085 5.60247 146.809 5.72809C146.558 5.8537 146.294 6.11749 146.018 6.51946C145.741 6.92143 145.402 7.51181 145 8.29063L140.139 18.3524V28.8286H135.315ZM158.352 6.11973e-05C158.93 6.11973e-05 159.47 0.0628684 159.972 0.188483C160.475 0.288975 160.852 0.402028 161.103 0.527642V4.2584C160.902 4.18303 160.613 4.10766 160.236 4.03229C159.884 3.9318 159.495 3.88155 159.068 3.88155C158.49 3.88155 158.038 4.04485 157.711 4.37145C157.41 4.69805 157.259 5.23819 157.259 5.99188V7.80073C157.259 8.27806 157.234 8.81821 157.184 9.42116C157.133 9.99898 157.083 10.5642 157.033 11.117H157.259C157.611 10.5391 158.063 10.0241 158.616 9.57189C159.168 9.09456 159.822 8.71772 160.575 8.44136C161.354 8.16501 162.246 8.02683 163.251 8.02683C164.834 8.02683 166.215 8.4288 167.396 9.23273C168.602 10.0115 169.532 11.1798 170.185 12.7374C170.863 14.295 171.202 16.242 171.202 18.5785C171.202 20.8898 170.863 22.8368 170.185 24.4195C169.532 26.0023 168.615 27.1956 167.434 27.9996C166.253 28.8035 164.859 29.2055 163.251 29.2055C162.246 29.2055 161.354 29.0798 160.575 28.8286C159.822 28.5774 159.181 28.2508 158.653 27.8488C158.126 27.4469 157.661 27.0072 157.259 26.5299H157.033C157.108 26.9821 157.158 27.4845 157.184 28.0372C157.234 28.5899 157.259 29.1175 157.259 29.62V37.8729H152.511V6.02956C152.511 4.62268 152.737 3.47959 153.189 2.60028C153.666 1.72098 154.345 1.06779 155.224 0.640696C156.103 0.213606 157.146 6.11973e-05 158.352 6.11973e-05ZM161.894 11.8706C160.789 11.8706 159.897 12.0967 159.219 12.549C158.54 12.9761 158.05 13.6418 157.749 14.5462C157.447 15.4507 157.284 16.5812 157.259 17.9378V18.5408C157.259 19.9979 157.397 21.2289 157.673 22.2338C157.975 23.2388 158.465 24.005 159.143 24.5326C159.847 25.0602 160.789 25.324 161.97 25.324C162.974 25.324 163.791 25.0476 164.419 24.4949C165.072 23.9422 165.55 23.1634 165.851 22.1585C166.178 21.1284 166.341 19.91 166.341 18.5031C166.341 16.3928 165.977 14.7598 165.248 13.6041C164.545 12.4485 163.427 11.8706 161.894 11.8706ZM183.411 16.0536C184.893 16.0536 186.2 16.3425 187.33 16.9203C188.461 17.4731 189.327 18.2393 189.93 19.2191C190.533 20.1738 190.835 21.2541 190.835 22.46C190.835 23.6407 190.533 24.721 189.93 25.7008C189.327 26.6555 188.461 27.4217 187.33 27.9996C186.2 28.5523 184.893 28.8286 183.411 28.8286H175.309L175.573 23.9296V14.697L175.309 9.98642H181.112L180.849 14.697V16.0536H183.411ZM198.56 9.98642L198.296 14.697V23.9296L198.56 28.8286H192.757L193.021 23.9296V14.697L192.757 9.98642H198.56ZM182.846 25.0602C183.75 25.0602 184.454 24.8215 184.956 24.3442C185.484 23.8668 185.747 23.2388 185.747 22.46C185.747 21.656 185.484 21.0154 184.956 20.538C184.454 20.0607 183.75 19.822 182.846 19.822H180.472V25.0602H182.846Z" fill="#D90429"/>
</svg>
