<svg width="478" height="52" viewBox="0 0 478 52" fill="none" xmlns="http://www.w3.org/2000/svg">
<path d="M9.396 21.4415L11.916 25.0415L5.724 29.7935L11.916 34.5815L9.396 38.1815L1.26 31.5215V28.1015L9.396 21.4415ZM18.936 21.4415L21.456 25.0415L15.264 29.7935L21.456 34.5815L18.936 38.1815L10.8 31.5215V28.1015L18.936 21.4415ZM29.8749 39.2615V17.3735H28.9389C28.1949 17.3735 27.6429 17.5655 27.2829 17.9495C26.9229 18.3095 26.7429 18.7655 26.7429 19.3175C26.7429 19.7255 26.7789 20.0855 26.8509 20.3975C26.9469 20.7095 27.0309 20.9495 27.1029 21.1175H23.3949C23.2989 20.9015 23.2029 20.6135 23.1069 20.2535C23.0109 19.8695 22.9629 19.4735 22.9629 19.0655C22.9629 18.0095 23.1549 17.0615 23.5389 16.2215C23.9469 15.3815 24.5949 14.7335 25.4829 14.2775C26.3949 13.7975 27.5709 13.5575 29.0109 13.5575H37.8669C40.5309 13.5575 42.8349 14.0375 44.7789 14.9975C46.7229 15.9575 48.2229 17.3735 49.2789 19.2455C50.3589 21.0935 50.8989 23.3975 50.8989 26.1575C50.8989 29.0375 50.3469 31.4495 49.2429 33.3935C48.1629 35.3375 46.5909 36.8015 44.5269 37.7855C42.4869 38.7695 40.0149 39.2615 37.1109 39.2615H29.8749ZM37.2549 35.4095C40.2309 35.4095 42.4509 34.6535 43.9149 33.1415C45.3789 31.6055 46.1109 29.3255 46.1109 26.3015C46.1109 24.2615 45.7869 22.5815 45.1389 21.2615C44.5149 19.9415 43.5909 18.9695 42.3669 18.3455C41.1429 17.6975 39.6429 17.3735 37.8669 17.3735H34.4829V35.4095H37.2549ZM61.5116 11.7215C62.0636 11.7215 62.5796 11.7815 63.0596 11.9015C63.5396 11.9975 63.8996 12.1055 64.1396 12.2255V15.7895C63.9476 15.7175 63.6716 15.6455 63.3116 15.5735C62.9756 15.4775 62.6036 15.4295 62.1956 15.4295C61.6436 15.4295 61.2116 15.5855 60.8996 15.8975C60.6116 16.2095 60.4676 16.7255 60.4676 17.4455V19.1735C60.4676 19.6295 60.4436 20.1455 60.3956 20.7215C60.3476 21.2735 60.2996 21.8135 60.2516 22.3415H60.4676C60.8036 21.7895 61.2356 21.2975 61.7636 20.8655C62.2916 20.4095 62.9156 20.0495 63.6356 19.7855C64.3796 19.5215 65.2316 19.3895 66.1916 19.3895C67.7036 19.3895 69.0236 19.7735 70.1516 20.5415C71.3036 21.2855 72.1916 22.4015 72.8156 23.8895C73.4636 25.3775 73.7876 27.2375 73.7876 29.4695C73.7876 31.6775 73.4636 33.5375 72.8156 35.0495C72.1916 36.5615 71.3156 37.7015 70.1876 38.4695C69.0596 39.2375 67.7276 39.6215 66.1916 39.6215C65.2316 39.6215 64.3796 39.5015 63.6356 39.2615C62.9156 39.0215 62.3036 38.7095 61.7996 38.3255C61.2956 37.9415 60.8516 37.5215 60.4676 37.0655H60.2516C60.3236 37.4975 60.3716 37.9775 60.3956 38.5055C60.4436 39.0335 60.4676 39.5375 60.4676 40.0175V47.9015H55.9316V17.4815C55.9316 16.1375 56.1476 15.0455 56.5796 14.2055C57.0356 13.3655 57.6836 12.7415 58.5236 12.3335C59.3636 11.9255 60.3596 11.7215 61.5116 11.7215ZM64.8956 23.0615C63.8396 23.0615 62.9876 23.2775 62.3396 23.7095C61.6916 24.1175 61.2236 24.7535 60.9356 25.6175C60.6476 26.4815 60.4916 27.5615 60.4676 28.8575V29.4335C60.4676 30.8255 60.5996 32.0015 60.8636 32.9615C61.1516 33.9215 61.6196 34.6535 62.2676 35.1575C62.9396 35.6615 63.8396 35.9135 64.9676 35.9135C65.9276 35.9135 66.7076 35.6495 67.3076 35.1215C67.9316 34.5935 68.3876 33.8495 68.6756 32.8895C68.9876 31.9055 69.1436 30.7415 69.1436 29.3975C69.1436 27.3815 68.7956 25.8215 68.0996 24.7175C67.4276 23.6135 66.3596 23.0615 64.8956 23.0615ZM95.8908 29.4695C95.8908 31.6295 95.5068 33.4655 94.7388 34.9775C93.9948 36.4895 92.9148 37.6415 91.4988 38.4335C90.1068 39.2255 88.4508 39.6215 86.5308 39.6215C84.7548 39.6215 83.1708 39.2255 81.7788 38.4335C80.4108 37.6415 79.3188 36.4895 78.5028 34.9775C77.7108 33.4655 77.3148 31.6295 77.3148 29.4695C77.3148 26.2295 78.1428 23.7455 79.7988 22.0175C81.4788 20.2655 83.7588 19.3895 86.6388 19.3895C87.9588 19.3895 89.1828 19.6055 90.3108 20.0375C91.4388 20.4455 92.3988 21.0455 93.1908 21.8375C93.8868 21.6215 94.4148 21.2735 94.7748 20.7935C95.1348 20.3135 95.3868 19.7375 95.5308 19.0655C95.6748 18.3695 95.7468 17.6135 95.7468 16.7975H100.319L100.571 17.1935C100.355 18.3215 100.043 19.3655 99.6348 20.3255C99.2268 21.2615 98.6508 22.0655 97.9068 22.7375C97.1628 23.4095 96.1548 23.9375 94.8828 24.3215C95.1948 25.0175 95.4348 25.7975 95.6028 26.6615C95.7948 27.5255 95.8908 28.4615 95.8908 29.4695ZM81.9588 29.4695C81.9588 30.8615 82.1148 32.0495 82.4268 33.0335C82.7628 33.9935 83.2668 34.7255 83.9388 35.2295C84.6348 35.7095 85.5228 35.9495 86.6028 35.9495C87.7068 35.9495 88.5948 35.7095 89.2668 35.2295C89.9388 34.7255 90.4308 33.9935 90.7428 33.0335C91.0788 32.0735 91.2468 30.8855 91.2468 29.4695C91.2468 28.0535 91.0908 26.8775 90.7788 25.9415C90.4668 24.9815 89.9628 24.2615 89.2668 23.7815C88.5708 23.3015 87.6708 23.0615 86.5668 23.0615C84.9588 23.0615 83.7828 23.6015 83.0388 24.6815C82.3188 25.7615 81.9588 27.3575 81.9588 29.4695ZM127.941 34.8335C128.709 36.8015 129.417 38.2175 130.065 39.0815V39.2615H124.629C124.293 38.7575 123.981 38.2295 123.693 37.6775C123.429 37.1015 123.081 36.2855 122.649 35.2295C121.977 33.5735 121.329 32.4455 120.705 31.8455C120.081 31.2455 119.217 30.9455 118.113 30.9455H117.033V34.5815L117.285 39.2615H111.921L112.173 34.5815V30.9455H111.093C109.989 30.9455 109.125 31.2455 108.501 31.8455C107.877 32.4455 107.229 33.5735 106.557 35.2295C106.125 36.2855 105.765 37.1015 105.477 37.6775C105.213 38.2295 104.913 38.7575 104.577 39.2615H99.1406V39.0815C99.7886 38.2175 100.497 36.8015 101.265 34.8335C102.057 32.8175 102.897 31.2935 103.785 30.2615C104.697 29.2055 105.837 28.4975 107.205 28.1375L100.617 21.2615H106.593L109.113 24.8615L111.705 27.7055H112.173V25.7615L111.921 21.2615H117.285L117.033 25.7615V27.7055H117.501L120.093 24.8615L122.613 21.2615H128.589L122.001 28.1375C123.369 28.4975 124.497 29.2055 125.385 30.2615C126.297 31.2935 127.149 32.8175 127.941 34.8335ZM147.898 32.2775C147.898 33.4295 148.006 34.6055 148.222 35.8055C148.438 36.9815 148.738 38.0735 149.122 39.0815V39.2615H144.154C143.818 38.6855 143.566 37.9655 143.398 37.1015C142.558 38.0375 141.622 38.7335 140.59 39.1895C139.582 39.6215 138.418 39.8375 137.098 39.8375C135.922 39.8375 134.878 39.6095 133.966 39.1535C133.078 38.6735 132.382 38.0375 131.878 37.2455C131.398 36.4535 131.158 35.5775 131.158 34.6175C131.158 32.4095 132.13 30.7775 134.074 29.7215C136.042 28.6655 138.55 28.1375 141.598 28.1375H142.966V27.1655C142.966 26.2775 142.714 25.5815 142.21 25.0775C141.706 24.5495 141.022 24.2855 140.158 24.2855C139.318 24.2855 138.586 24.5255 137.962 25.0055C137.362 25.4855 137.014 26.2055 136.918 27.1655L131.698 26.4815C132.034 24.7055 132.91 23.2655 134.326 22.1615C135.742 21.0575 137.686 20.5055 140.158 20.5055C142.582 20.5055 144.478 21.1775 145.846 22.5215C147.214 23.8655 147.898 25.7135 147.898 28.0655V32.2775ZM138.718 35.8775C139.582 35.8775 140.41 35.6495 141.202 35.1935C141.994 34.7375 142.582 34.1015 142.966 33.2855V31.3055H141.958C140.062 31.3055 138.658 31.5455 137.746 32.0255C136.834 32.5055 136.378 33.1655 136.378 34.0055C136.378 34.5575 136.582 35.0135 136.99 35.3735C137.398 35.7095 137.974 35.8775 138.718 35.8775ZM145.738 18.3815H134.218V15.1415H145.738V18.3815ZM181.584 45.5615H176.364L177.084 39.2615H152.172L152.424 34.5815V25.7615L152.172 21.2615H157.716L157.464 25.7615V35.1215H162.864V25.7615L162.612 21.2615H167.616L167.364 25.7615V35.1215H172.764V25.7615L172.512 21.2615H178.056L177.804 25.7615V35.1215H181.584V45.5615ZM199.754 32.2775C199.754 33.4295 199.862 34.6055 200.078 35.8055C200.294 36.9815 200.594 38.0735 200.978 39.0815V39.2615H196.01C195.674 38.6855 195.422 37.9655 195.254 37.1015C194.414 38.0375 193.478 38.7335 192.446 39.1895C191.438 39.6215 190.274 39.8375 188.954 39.8375C187.778 39.8375 186.734 39.6095 185.822 39.1535C184.934 38.6735 184.238 38.0375 183.734 37.2455C183.254 36.4535 183.014 35.5775 183.014 34.6175C183.014 32.4095 183.986 30.7775 185.93 29.7215C187.898 28.6655 190.406 28.1375 193.454 28.1375H194.822V27.1655C194.822 26.2775 194.57 25.5815 194.066 25.0775C193.562 24.5495 192.878 24.2855 192.014 24.2855C191.174 24.2855 190.442 24.5255 189.818 25.0055C189.218 25.4855 188.87 26.2055 188.774 27.1655L183.554 26.4815C183.89 24.7055 184.766 23.2655 186.182 22.1615C187.598 21.0575 189.542 20.5055 192.014 20.5055C194.438 20.5055 196.334 21.1775 197.702 22.5215C199.07 23.8655 199.754 25.7135 199.754 28.0655V32.2775ZM190.574 35.8775C191.438 35.8775 192.266 35.6495 193.058 35.1935C193.85 34.7375 194.438 34.1015 194.822 33.2855V31.3055H193.814C191.918 31.3055 190.514 31.5455 189.602 32.0255C188.69 32.5055 188.234 33.1655 188.234 34.0055C188.234 34.5575 188.438 35.0135 188.846 35.3735C189.254 35.7095 189.83 35.8775 190.574 35.8775ZM197.594 18.3815H186.074V15.1415H197.594V18.3815ZM224.35 21.4415L232.486 28.1015V31.5215L224.35 38.1815L221.83 34.5815L228.022 29.7935L221.83 25.0415L224.35 21.4415ZM231.37 25.0415L233.89 21.4415L242.026 28.1015V31.5215L233.89 38.1815L231.37 34.5815L237.562 29.7935L231.37 25.0415Z" fill="#D90429"/>
<path d="M219.226 29.098H223.294V25.318H219.226V29.098ZM212.998 13.546C210.742 13.546 208.882 13.822 207.418 14.374C205.954 14.926 204.862 15.766 204.142 16.894C203.422 17.998 203.062 19.402 203.062 21.106C203.062 22.354 203.302 23.422 203.782 24.31C204.238 25.198 204.838 25.942 205.582 26.542C206.326 27.118 207.13 27.586 207.994 27.946L200.614 39.25H205.798L211.954 29.098H215.698V39.25H220.306V13.546H212.998ZM213.286 17.398H215.698V25.318H213.142C211.87 25.318 210.838 25.162 210.046 24.85C209.254 24.538 208.678 24.082 208.318 23.482C207.934 22.882 207.742 22.138 207.742 21.25C207.742 20.314 207.946 19.57 208.354 19.018C208.762 18.442 209.374 18.034 210.19 17.794C210.982 17.53 212.014 17.398 213.286 17.398Z" fill="#D90429"/>
<path d="M462.214 28.373H466.472V24.4161H462.214V28.373ZM455.694 12.0934C453.333 12.0934 451.386 12.3823 449.853 12.9601C448.321 13.5379 447.178 14.4172 446.424 15.598C445.67 16.7537 445.294 18.2233 445.294 20.0071C445.294 21.3135 445.545 22.4314 446.047 23.361C446.525 24.2905 447.153 25.0693 447.931 25.6974C448.71 26.3004 449.552 26.7903 450.456 27.1671L442.731 39H448.158L454.602 28.373H458.521V39H463.344V12.0934H455.694ZM455.996 16.1256H458.521V24.4161H455.845C454.514 24.4161 453.433 24.2528 452.604 23.9262C451.775 23.5996 451.172 23.1223 450.795 22.4942C450.393 21.8662 450.192 21.0874 450.192 20.1578C450.192 19.178 450.406 18.3992 450.833 17.8214C451.26 17.2184 451.901 16.7913 452.755 16.5401C453.584 16.2638 454.664 16.1256 455.996 16.1256Z" fill="#D90429"/>
<path d="M273.844 19.3418C274.132 19.3418 274.468 19.3658 274.852 19.4138C275.236 19.4378 275.56 19.4738 275.824 19.5218L275.464 23.8058C275.224 23.7338 274.804 23.6858 274.204 23.6618C273.628 23.6138 273.076 23.5898 272.548 23.5898C272.02 23.5898 271.396 23.6738 270.676 23.8418C269.98 24.0098 269.296 24.3458 268.624 24.8498C268.264 24.5138 267.82 24.2498 267.292 24.0578C266.788 23.8658 266.14 23.7698 265.348 23.7698C264.676 23.7698 264.004 23.9618 263.332 24.3458C262.684 24.7298 262.144 25.3178 261.712 26.1098C261.28 26.9018 261.064 27.9098 261.064 29.1338V39.2498H256.528V19.7018H259.984L260.632 23.0498H260.884C261.292 22.3058 261.772 21.6578 262.324 21.1058C262.876 20.5538 263.5 20.1218 264.196 19.8098C264.916 19.4978 265.684 19.3418 266.5 19.3418C266.836 19.3418 267.196 19.3658 267.58 19.4138C267.988 19.4618 268.336 19.5338 268.624 19.6298V22.4738C269.08 21.8258 269.584 21.2738 270.136 20.8178C270.688 20.3618 271.276 20.0018 271.9 19.7378C272.548 19.4738 273.196 19.3418 273.844 19.3418ZM296.838 29.3498C296.838 29.9258 296.766 30.5378 296.622 31.1858H282.474C282.618 32.7938 283.122 34.0058 283.986 34.8218C284.85 35.6378 285.954 36.0458 287.298 36.0458C288.474 36.0458 289.458 35.7818 290.25 35.2538C291.042 34.7018 291.498 33.9698 291.618 33.0578L296.478 33.7418C296.31 35.1098 295.746 36.2738 294.786 37.2338C293.826 38.1698 292.662 38.8658 291.294 39.3218C289.95 39.7778 288.618 40.0058 287.298 40.0058C285.402 40.0058 283.698 39.5858 282.186 38.7458C280.698 37.9058 279.522 36.7418 278.658 35.2538C277.818 33.7658 277.398 32.0978 277.398 30.2498C277.398 28.4018 277.818 26.7338 278.658 25.2458C279.498 23.7578 280.662 22.5938 282.15 21.7538C283.638 20.9138 285.294 20.4938 287.118 20.4938C288.942 20.4938 290.586 20.9018 292.05 21.7178C293.538 22.5338 294.702 23.6258 295.542 24.9938C296.406 26.3378 296.838 27.7898 296.838 29.3498ZM287.118 24.4538C286.062 24.4538 285.15 24.7418 284.382 25.3178C283.614 25.8938 283.074 26.7338 282.762 27.8378H291.654C291.342 26.7818 290.79 25.9538 289.998 25.3538C289.23 24.7538 288.27 24.4538 287.118 24.4538ZM287.707 40.8698C289.435 40.9418 290.731 41.3498 291.595 42.0938C292.459 42.8378 292.891 43.8338 292.891 45.0818C292.891 47.9138 290.767 49.3298 286.519 49.3298C285.535 49.3298 284.635 49.2578 283.819 49.1138C283.003 48.9698 282.151 48.7418 281.263 48.4298V45.0098C282.895 45.7298 284.647 46.0898 286.519 46.0898C287.671 46.0898 288.451 45.9818 288.859 45.7658C289.267 45.5498 289.471 45.2378 289.471 44.8298C289.471 44.4218 289.279 44.1098 288.895 43.8938C288.487 43.6778 287.755 43.5698 286.699 43.5698C285.355 43.5698 284.023 43.7618 282.703 44.1458L285.295 38.8898H288.715L287.707 40.8698ZM308.713 40.0058C306.769 40.0058 305.029 39.5858 303.493 38.7458C301.957 37.9058 300.757 36.7418 299.893 35.2538C299.053 33.7658 298.633 32.0978 298.633 30.2498C298.633 28.4018 299.053 26.7338 299.893 25.2458C300.757 23.7578 301.957 22.5938 303.493 21.7538C305.029 20.9138 306.769 20.4938 308.713 20.4938C310.657 20.4938 312.397 20.9138 313.933 21.7538C315.469 22.5938 316.657 23.7578 317.497 25.2458C318.361 26.7338 318.793 28.4018 318.793 30.2498C318.793 32.0978 318.361 33.7658 317.497 35.2538C316.657 36.7418 315.469 37.9058 313.933 38.7458C312.397 39.5858 310.657 40.0058 308.713 40.0058ZM308.713 35.8658C310.105 35.8658 311.257 35.3498 312.169 34.3178C313.105 33.2858 313.573 31.9298 313.573 30.2498C313.573 28.5698 313.105 27.2138 312.169 26.1818C311.257 25.1498 310.105 24.6338 308.713 24.6338C307.321 24.6338 306.157 25.1498 305.221 26.1818C304.309 27.2138 303.853 28.5698 303.853 30.2498C303.853 31.9298 304.309 33.2858 305.221 34.3178C306.157 35.3498 307.321 35.8658 308.713 35.8658ZM308.713 19.2698C304.849 19.2698 302.749 17.5898 302.413 14.2298H306.013C306.109 14.9498 306.385 15.4898 306.841 15.8498C307.321 16.2098 307.945 16.3898 308.713 16.3898C309.481 16.3898 310.093 16.2098 310.549 15.8498C311.029 15.4898 311.317 14.9498 311.413 14.2298H315.013C314.677 17.5898 312.577 19.2698 308.713 19.2698ZM349.657 39.2498C349.657 40.9058 349.369 42.2738 348.793 43.3538C348.241 44.4338 347.437 45.2378 346.381 45.7658C345.325 46.2938 344.101 46.5578 342.709 46.5578C342.061 46.5578 341.485 46.5098 340.981 46.4138C340.477 46.3418 340.045 46.2578 339.685 46.1618V42.5258C340.045 42.6218 340.417 42.7058 340.801 42.7778C341.185 42.8498 341.593 42.8858 342.025 42.8858C343.153 42.8858 343.981 42.5858 344.509 41.9858C345.037 41.4098 345.313 40.4978 345.337 39.2498V25.4258C345.337 24.6098 345.349 23.7938 345.373 22.9778C345.397 22.1618 345.421 21.3698 345.445 20.6018C345.493 19.8098 345.541 19.0418 345.589 18.2978H345.445L338.137 39.2498H333.997L327.049 18.2618H326.905C326.953 19.0298 327.001 19.8098 327.049 20.6018C327.097 21.3938 327.133 22.2098 327.157 23.0498C327.181 23.8898 327.193 24.7538 327.193 25.6418V39.2498H323.053V13.5458H329.389L336.157 33.8858H336.265L343.321 13.5458H349.657V39.2498ZM373.338 29.3498C373.338 29.9258 373.266 30.5378 373.122 31.1858H358.974C359.118 32.7938 359.622 34.0058 360.486 34.8218C361.35 35.6378 362.454 36.0458 363.798 36.0458C364.974 36.0458 365.958 35.7818 366.75 35.2538C367.542 34.7018 367.998 33.9698 368.118 33.0578L372.978 33.7418C372.81 35.1098 372.246 36.2738 371.286 37.2338C370.326 38.1698 369.162 38.8658 367.794 39.3218C366.45 39.7778 365.118 40.0058 363.798 40.0058C361.902 40.0058 360.198 39.5858 358.686 38.7458C357.198 37.9058 356.022 36.7418 355.158 35.2538C354.318 33.7658 353.898 32.0978 353.898 30.2498C353.898 28.4018 354.318 26.7338 355.158 25.2458C355.998 23.7578 357.162 22.5938 358.65 21.7538C360.138 20.9138 361.794 20.4938 363.618 20.4938C365.442 20.4938 367.086 20.9018 368.55 21.7178C370.038 22.5338 371.202 23.6258 372.042 24.9938C372.906 26.3378 373.338 27.7898 373.338 29.3498ZM363.618 24.4538C362.562 24.4538 361.65 24.7418 360.882 25.3178C360.114 25.8938 359.574 26.7338 359.262 27.8378H368.154C367.842 26.7818 367.29 25.9538 366.498 25.3538C365.73 24.7538 364.77 24.4538 363.618 24.4538ZM364.207 40.8698C365.935 40.9418 367.231 41.3498 368.095 42.0938C368.959 42.8378 369.391 43.8338 369.391 45.0818C369.391 47.9138 367.267 49.3298 363.019 49.3298C362.035 49.3298 361.135 49.2578 360.319 49.1138C359.503 48.9698 358.651 48.7418 357.763 48.4298V45.0098C359.395 45.7298 361.147 46.0898 363.019 46.0898C364.171 46.0898 364.951 45.9818 365.359 45.7658C365.767 45.5498 365.971 45.2378 365.971 44.8298C365.971 44.4218 365.779 44.1098 365.395 43.8938C364.987 43.6778 364.255 43.5698 363.199 43.5698C361.855 43.5698 360.523 43.7618 359.203 44.1458L361.795 38.8898H365.215L364.207 40.8698ZM383.341 39.2498V17.4338H380.461C379.717 17.4338 379.165 17.6138 378.805 17.9738C378.445 18.3338 378.265 18.7898 378.265 19.3418C378.265 19.7258 378.301 20.0738 378.373 20.3858C378.469 20.6978 378.553 20.9378 378.625 21.1058H374.917C374.821 20.8898 374.725 20.6018 374.629 20.2418C374.533 19.8578 374.485 19.4618 374.485 19.0538C374.485 17.9978 374.677 17.0498 375.061 16.2098C375.469 15.3698 376.117 14.7218 377.005 14.2658C377.917 13.7858 379.093 13.5458 380.533 13.5458H395.329V17.4338H387.949V39.2498H383.341ZM404.385 11.7098C404.937 11.7098 405.453 11.7698 405.933 11.8898C406.413 11.9858 406.773 12.0938 407.013 12.2138V15.7778C406.821 15.7058 406.545 15.6338 406.185 15.5618C405.849 15.4658 405.477 15.4178 405.069 15.4178C404.517 15.4178 404.085 15.5738 403.773 15.8858C403.485 16.1978 403.341 16.7138 403.341 17.4338V19.1618C403.341 19.6178 403.317 20.1338 403.269 20.7098C403.221 21.2618 403.173 21.8018 403.125 22.3298H403.341C403.677 21.7778 404.109 21.2858 404.637 20.8538C405.165 20.3978 405.789 20.0378 406.509 19.7738C407.253 19.5098 408.105 19.3778 409.065 19.3778C410.577 19.3778 411.897 19.7618 413.025 20.5298C414.177 21.2738 415.065 22.3898 415.689 23.8778C416.337 25.3658 416.661 27.2258 416.661 29.4578C416.661 31.6658 416.337 33.5258 415.689 35.0378C415.065 36.5498 414.189 37.6898 413.061 38.4578C411.933 39.2258 410.601 39.6098 409.065 39.6098C408.105 39.6098 407.253 39.4898 406.509 39.2498C405.789 39.0098 405.177 38.6978 404.673 38.3138C404.169 37.9298 403.725 37.5098 403.341 37.0538H403.125C403.197 37.4858 403.245 37.9658 403.269 38.4938C403.317 39.0218 403.341 39.5258 403.341 40.0058V47.8898H398.805V17.4698C398.805 16.1258 399.021 15.0338 399.453 14.1938C399.909 13.3538 400.557 12.7298 401.397 12.3218C402.237 11.9138 403.233 11.7098 404.385 11.7098ZM407.769 23.0498C406.713 23.0498 405.861 23.2658 405.213 23.6978C404.565 24.1058 404.097 24.7418 403.809 25.6058C403.521 26.4698 403.365 27.5498 403.341 28.8458V29.4218C403.341 30.8138 403.473 31.9898 403.737 32.9498C404.025 33.9098 404.493 34.6418 405.141 35.1458C405.813 35.6498 406.713 35.9018 407.841 35.9018C408.801 35.9018 409.581 35.6378 410.181 35.1098C410.805 34.5818 411.261 33.8378 411.549 32.8778C411.861 31.8938 412.017 30.7298 412.017 29.3858C412.017 27.3698 411.669 25.8098 410.973 24.7058C410.301 23.6018 409.233 23.0498 407.769 23.0498ZM438.656 19.7378V39.2498H435.092L434.48 36.7298H434.264C433.856 37.4018 433.328 37.9538 432.68 38.3858C432.032 38.7938 431.324 39.0938 430.556 39.2858C429.788 39.5018 428.996 39.6098 428.18 39.6098C426.74 39.6098 425.492 39.3578 424.436 38.8538C423.38 38.3498 422.576 37.5818 422.024 36.5498C421.472 35.4938 421.196 34.1378 421.196 32.4818V19.7378H425.732V31.5818C425.732 33.0218 426.02 34.1138 426.596 34.8578C427.172 35.5778 428.084 35.9378 429.332 35.9378C430.556 35.9378 431.516 35.6858 432.212 35.1818C432.908 34.6538 433.4 33.8978 433.688 32.9138C433.976 31.9298 434.12 30.7178 434.12 29.2778V19.7378H438.656ZM430.052 11.9258C431.372 11.9258 432.488 12.1538 433.4 12.6098C434.336 13.0658 435.056 13.7018 435.56 14.5178C436.064 15.3338 436.34 16.3058 436.388 17.4338H433.796C433.748 16.7618 433.544 16.2698 433.184 15.9578C432.848 15.6458 432.404 15.4418 431.852 15.3458C431.324 15.2498 430.712 15.2018 430.016 15.2018C429.416 15.2018 428.84 15.2618 428.288 15.3818C427.736 15.5018 427.268 15.7178 426.884 16.0298C426.524 16.3418 426.296 16.8098 426.2 17.4338H423.572C423.668 16.3298 423.98 15.3698 424.508 14.5538C425.06 13.7378 425.804 13.1018 426.74 12.6458C427.7 12.1658 428.804 11.9258 430.052 11.9258Z" fill="#D90429"/>
</svg>
