<svg width="66" height="47" viewBox="0 0 66 47" fill="none" xmlns="http://www.w3.org/2000/svg">
<path d="M3.94434 36.5625L20.8193 46.3053V26.8197L3.94434 36.5625ZM60.1943 36.5625L43.3193 26.8197V46.3053L60.1943 36.5625ZM19.1318 36.5625V38.25H45.0068V36.5625V34.875H19.1318V36.5625Z" fill="#D90429"/>
<path d="M5.63184 2.8125C5.68436 2.06658 5.43405 1.35121 4.90573 0.823762C4.37916 0.296316 3.61778 -2.38419e-07 2.81934 -2.38419e-07C2.02089 -2.38419e-07 1.25951 0.296316 0.732942 0.823762C0.204617 1.35121 -0.0456839 2.06658 0.00683594 2.8125C0.0537109 3.4875 0.100586 4.1625 0.147461 4.8375C0.991211 16.9875 1.83496 29.1375 2.67871 41.2875C2.72559 41.9625 2.77246 42.6375 2.81934 43.3125C2.86621 42.6375 2.91309 41.9625 2.95996 41.2875C3.80371 29.1375 4.64746 16.9875 5.49121 4.8375C5.53809 4.1625 5.58496 3.4875 5.63184 2.8125Z" fill="#D90429"/>
<path d="M65.2568 2.8125C65.3094 2.06658 65.0591 1.35121 64.5307 0.823762C64.0042 0.296316 63.2428 -2.38419e-07 62.4443 -2.38419e-07C61.6459 -2.38419e-07 60.8845 0.296316 60.3579 0.823762C59.8296 1.35121 59.5793 2.06658 59.6318 2.8125C59.6787 3.4875 59.7256 4.1625 59.7725 4.8375C60.6162 16.9875 61.46 29.1375 62.3037 41.2875C62.3506 41.9625 62.3975 42.6375 62.4443 43.3125C62.4912 42.6375 62.5381 41.9625 62.585 41.2875C63.4287 29.1375 64.2725 16.9875 65.1162 4.8375C65.1631 4.1625 65.21 3.4875 65.2568 2.8125Z" fill="#D90429"/>
</svg>
