<svg width="61" height="47" viewBox="0 0 61 47" fill="none" xmlns="http://www.w3.org/2000/svg">
<path d="M3.94458 36.5625L20.8196 46.3053L20.8196 26.8197L3.94458 36.5625ZM57.9446 36.5625L41.0696 26.8197V46.3053L57.9446 36.5625ZM19.1321 36.5625V38.25H42.7571V36.5625V34.875H19.1321V36.5625Z" fill="#D90429"/>
<path d="M5.63184 2.8125C5.68436 2.06658 5.43405 1.35121 4.90573 0.823762C4.37916 0.296316 3.61778 -2.38419e-07 2.81934 -2.38419e-07C2.02089 -2.38419e-07 1.25951 0.296316 0.732942 0.823762C0.204617 1.35121 -0.0456839 2.06658 0.00683594 2.8125C0.0537109 3.4875 0.100586 4.1625 0.147461 4.8375C0.991211 16.9875 1.83496 29.1375 2.67871 41.2875C2.72559 41.9625 2.77246 42.6375 2.81934 43.3125C2.86621 42.6375 2.91309 41.9625 2.95996 41.2875C3.80371 29.1375 4.64746 16.9875 5.49121 4.8375C5.53809 4.1625 5.58496 3.4875 5.63184 2.8125Z" fill="#D90429"/>
<path d="M60.7568 2.8125C60.8094 2.06658 60.5591 1.35121 60.0307 0.823762C59.5042 0.296316 58.7428 -2.38419e-07 57.9443 -2.38419e-07C57.1459 -2.38419e-07 56.3845 0.296316 55.8579 0.823762C55.3296 1.35121 55.0793 2.06658 55.1318 2.8125C55.1787 3.4875 55.2256 4.1625 55.2725 4.8375C56.1162 16.9875 56.96 29.1375 57.8037 41.2875C57.8506 41.9625 57.8975 42.6375 57.9443 43.3125C57.9912 42.6375 58.0381 41.9625 58.085 41.2875C58.9287 29.1375 59.7725 16.9875 60.6162 4.8375C60.6631 4.1625 60.71 3.4875 60.7568 2.8125Z" fill="#D90429"/>
</svg>
