<svg width="1779" height="1926" viewBox="0 0 1779 1926" fill="none" xmlns="http://www.w3.org/2000/svg">
<rect x="493" y="201.88" width="1058.02" height="1293.78" transform="rotate(-11 493 201.88)" fill="#C7D7F2"/>
<rect x="731.973" y="1123.32" width="940.181" height="285.999" transform="rotate(-11 731.973 1123.32)" stroke="#0C1124" stroke-width="2.87506"/>
<rect x="576.905" y="349.133" width="948.77" height="227.13" transform="rotate(-11 576.905 349.133)" stroke="#0C1124" stroke-width="2.87506"/>
<rect x="634.493" y="621.831" width="940.181" height="460.223" transform="rotate(-11 634.493 621.831)" stroke="#0C1124" stroke-width="2.87506"/>
<path d="M596.241 432.58L1526.87 251.684" stroke="#0C1124" stroke-width="2.87506" stroke-miterlimit="16" stroke-dasharray="1.44 5.75"/>
<path d="M607.18 488.852L1537.81 307.956" stroke="#0C1124" stroke-width="2.87506" stroke-miterlimit="16" stroke-dasharray="1.44 5.75"/>
<path d="M891.281 807.62C896.832 803.027 903.523 829.16 906.174 842.801C917.466 850.857 951.659 903.52 956.833 911.301C962.006 919.082 1016.08 956.166 1027.62 959.047C1039.16 961.929 1051.1 944.232 1038.01 940.919C1024.92 937.606 1004.42 896.193 1035.15 896.077C1065.88 895.962 1056.79 909.445 1071.88 934.336C1083.95 954.249 1081.93 968.504 1079.42 973.142C1131.53 1038.82 1218 1020.79 1250.81 1010.13C1266.69 1004.97 1270.01 1001.53 1250.81 1010.13C1249.14 1010.88 1247.29 1011.72 1245.26 1012.66C1172.06 1046.66 1095.05 1027.22 1073.63 1026.25C1052.21 1025.29 1057.44 1022.08 988.186 978.428C918.927 934.778 884.343 813.362 891.281 807.62Z" fill="#0C1124" fill-opacity="0.2"/>
<path d="M1264.14 1004.43C1248.99 1010.89 1213.77 1039.12 1198.05 1052.43C1180.06 1067.05 1246.67 1038.34 1282.23 1022.15C1256.88 1068.81 1171.75 1094.15 1158.34 1096.76C1144.93 1099.36 1176.37 1099.11 1206.96 1098.29C1237.56 1097.47 1237.05 1087.31 1251.87 1084.43C1263.72 1082.13 1272.39 1068.24 1275.25 1061.58C1424.15 949.899 1395.6 806.808 1383.21 776.998C1370.83 747.187 1372.65 722.67 1368.4 700.797C1364.15 678.925 1362.7 712.889 1353.55 711.007C1344.39 709.125 1377.82 783.171 1370.28 797.086C1362.73 811 1348.32 868.717 1341.83 895.606C1335.35 922.495 1334.31 932.216 1309.65 956.046C1284.99 979.877 1283.07 996.359 1264.14 1004.43Z" fill="#0C1124" fill-opacity="0.2"/>
<path d="M1272.15 332.701C1285.06 332.948 1318.97 343.125 1334.31 348.183C1351.69 353.534 1294.81 352.224 1264.2 350.9C1296.34 377.386 1365.7 370.796 1376.21 368.752C1386.72 366.709 1363.79 375.761 1341.3 384.152C1318.81 392.543 1316.2 385.011 1304.58 387.27C1295.28 389.077 1284.89 381.525 1280.86 377.523C1139.77 340.056 1118.49 227.615 1118.74 202.299C1118.99 176.983 1110.46 159.69 1107.12 142.536C1103.79 125.382 1114.82 149.653 1120.93 145.596C1127.03 141.538 1124.47 205.205 1134.05 213.106C1143.62 221.007 1171.06 258.745 1183.68 276.392C1196.3 294.038 1199.91 300.802 1224.84 310.887C1249.77 320.972 1256.01 332.393 1272.15 332.701Z" fill="#0C1124" fill-opacity="0.2"/>
<path d="M981.474 354.438C978.856 359.048 982.76 368.589 985.04 372.783C988.608 381.608 989.391 376.331 997.19 393.852C1004.99 411.374 1008.32 394.617 1024.49 402.458C1040.66 410.298 1050.61 420.078 1075.11 399.207C1099.61 378.336 1088.01 360.089 1082.92 337.649C1077.82 315.208 1044.13 315.166 1031.61 311.011C1019.09 306.855 1006.33 320.319 987.923 334.879C969.519 349.44 984.748 348.676 981.474 354.438Z" fill="#0C1124" fill-opacity="0.2"/>
<path d="M818.395 537.423C818.865 538.33 820.816 538.7 821.734 538.772C823.534 539.121 822.763 538.441 826.414 539.019C830.064 539.598 827.705 537.301 830.669 535.511C833.633 533.721 836.259 533.138 835.457 526.989C834.655 520.839 830.489 520.799 826.328 519.267C822.167 517.735 818.624 523.175 816.638 524.763C814.652 526.351 815.489 529.826 815.911 534.328C816.332 538.83 817.807 536.289 818.395 537.423Z" fill="#0C1124" fill-opacity="0.2"/>
<path d="M1118.36 826.94C1120.22 830.519 1127.92 831.98 1131.54 832.264C1138.65 833.643 1135.6 830.958 1150.01 833.241C1164.41 835.524 1155.11 826.458 1166.8 819.394C1178.5 812.329 1188.86 810.031 1185.7 785.761C1182.54 761.491 1166.09 761.333 1149.67 755.287C1133.25 749.242 1119.27 770.712 1111.43 776.977C1103.59 783.243 1106.9 796.957 1108.56 814.726C1110.22 832.494 1116.04 822.466 1118.36 826.94Z" fill="#0C1124" fill-opacity="0.2"/>
<path d="M750.412 1223.62L1670.1 1044.85" stroke="#0C1124" stroke-width="2.87506" stroke-miterlimit="16" stroke-dasharray="1.44 5.75"/>
<path d="M768.214 1315.2L1687.35 1136.54" stroke="#0C1124" stroke-width="2.87506" stroke-miterlimit="16" stroke-dasharray="1.44 5.75"/>
<circle cx="326.812" cy="1135.81" r="320.062" fill="#0C1124" stroke="#C7D7F2" stroke-width="13.5"/>
<circle cx="326.25" cy="1136.38" r="279.562" stroke="#C7D7F2" stroke-width="3.375"/>
<circle cx="326.813" cy="1135.81" r="189" stroke="#C7D7F2" stroke-width="3.375"/>
<circle cx="326.813" cy="1135.81" r="121.5" stroke="#C7D7F2" stroke-width="3.375"/>
<circle cx="326.812" cy="1135.81" r="64.125" stroke="#C7D7F2" stroke-width="3.375"/>
<circle cx="326.813" cy="1135.81" r="18" stroke="#C7D7F2" stroke-width="3.375"/>
<path d="M326.25 857.376V1417.63" stroke="#C7D7F2" stroke-width="3.375"/>
<path d="M46.1251 1136.38H606.375" stroke="#C7D7F2" stroke-width="3.375"/>
<path d="M362.25 1127.38V1144.25" stroke="#C7D7F2" stroke-width="3.375" stroke-linecap="round"/>
<path d="M416.25 1128.5V1145.38" stroke="#C7D7F2" stroke-width="3.375" stroke-linecap="round"/>
<path d="M470.25 1128.5V1145.38" stroke="#C7D7F2" stroke-width="3.375" stroke-linecap="round"/>
<path d="M183.375 1127.38V1144.25" stroke="#C7D7F2" stroke-width="3.375" stroke-linecap="round"/>
<path d="M237.376 1128.5V1145.38" stroke="#C7D7F2" stroke-width="3.375" stroke-linecap="round"/>
<path d="M291.375 1128.5V1145.38" stroke="#C7D7F2" stroke-width="3.375" stroke-linecap="round"/>
<path d="M318.375 1100.94H335.25" stroke="#C7D7F2" stroke-width="3.375" stroke-linecap="round"/>
<path d="M318.375 1046.94H335.25" stroke="#C7D7F2" stroke-width="3.375" stroke-linecap="round"/>
<path d="M318.375 992.938H335.25" stroke="#C7D7F2" stroke-width="3.375" stroke-linecap="round"/>
<path d="M318.375 1279.81H335.25" stroke="#C7D7F2" stroke-width="3.375" stroke-linecap="round"/>
<path d="M318.375 1225.81H335.25" stroke="#C7D7F2" stroke-width="3.375" stroke-linecap="round"/>
<path d="M318.375 1171.81H335.25" stroke="#C7D7F2" stroke-width="3.375" stroke-linecap="round"/>
<path d="M351 858.501L348.187 892.813" stroke="#C7D7F2" stroke-width="3.375" stroke-linecap="round"/>
<path d="M300.937 858.501L303.75 892.813" stroke="#C7D7F2" stroke-width="3.375" stroke-linecap="round"/>
<path d="M350.996 1414.81L348.183 1380.5" stroke="#C7D7F2" stroke-width="3.375" stroke-linecap="round"/>
<path d="M300.934 1414.81L303.746 1380.5" stroke="#C7D7F2" stroke-width="3.375" stroke-linecap="round"/>
<path d="M604.687 1111.63L570.375 1114.44" stroke="#C7D7F2" stroke-width="3.375" stroke-linecap="round"/>
<path d="M604.687 1161.69L570.375 1158.88" stroke="#C7D7F2" stroke-width="3.375" stroke-linecap="round"/>
<path d="M48.3749 1111.63L82.6874 1114.44" stroke="#C7D7F2" stroke-width="3.375" stroke-linecap="round"/>
<path d="M48.3749 1161.69L82.6874 1158.88" stroke="#C7D7F2" stroke-width="3.375" stroke-linecap="round"/>
<path d="M326.7 846.963C325.32 846.963 324.098 846.641 323.033 845.996C321.968 845.336 321.128 844.391 320.513 843.161C319.913 841.916 319.613 840.446 319.613 838.751C319.613 837.056 319.913 835.593 320.513 834.363C321.128 833.118 321.968 832.173 323.033 831.528C324.098 830.868 325.32 830.538 326.7 830.538C328.08 830.538 329.303 830.868 330.368 831.528C331.433 832.173 332.265 833.118 332.865 834.363C333.48 835.593 333.788 837.056 333.788 838.751C333.788 840.446 333.48 841.916 332.865 843.161C332.265 844.391 331.433 845.336 330.368 845.996C329.303 846.641 328.08 846.963 326.7 846.963ZM326.7 845.051C328.17 845.051 329.325 844.533 330.165 843.498C331.005 842.448 331.425 840.866 331.425 838.751C331.425 836.636 331.005 835.061 330.165 834.026C329.325 832.976 328.17 832.451 326.7 832.451C325.23 832.451 324.075 832.976 323.235 834.026C322.395 835.061 321.975 836.636 321.975 838.751C321.975 840.866 322.395 842.448 323.235 843.498C324.075 844.533 325.23 845.051 326.7 845.051Z" fill="#C7D7F2"/>
<path d="M339.975 1438.73V1429.5L339.862 1426.13H342.337L342.225 1429.5V1437.26C343.155 1435.81 344.415 1435.08 346.005 1435.08L346.5 1437.33C345.27 1437.33 344.272 1437.69 343.507 1438.41C342.742 1439.15 342.127 1440.3 341.662 1441.88H339.862L339.975 1438.73ZM327.295 1434.68C326.515 1434.3 325.908 1433.75 325.473 1433.01C325.023 1432.29 324.798 1431.46 324.798 1430.51C324.798 1429.64 325.03 1428.85 325.495 1428.13C325.96 1427.41 326.635 1426.84 327.52 1426.42C328.405 1426 329.448 1425.79 330.648 1425.79C331.848 1425.79 332.89 1426 333.775 1426.42C334.66 1426.84 335.335 1427.41 335.8 1428.13C336.265 1428.85 336.498 1429.64 336.498 1430.51C336.498 1431.46 336.28 1432.29 335.845 1433.01C335.395 1433.75 334.78 1434.3 334 1434.68C334.63 1435.02 335.11 1435.48 335.44 1436.05C335.77 1436.63 335.935 1437.26 335.935 1437.94C335.935 1438.73 335.725 1439.45 335.305 1440.1C334.885 1440.76 334.278 1441.28 333.483 1441.65C332.688 1442.03 331.743 1442.21 330.648 1442.21C329.553 1442.21 328.608 1442.03 327.813 1441.65C327.018 1441.28 326.41 1440.76 325.99 1440.1C325.57 1439.45 325.36 1438.73 325.36 1437.94C325.36 1437.26 325.525 1436.63 325.855 1436.05C326.185 1435.48 326.665 1435.02 327.295 1434.68ZM330.648 1440.3C331.608 1440.3 332.358 1440.07 332.898 1439.6C333.423 1439.15 333.685 1438.56 333.685 1437.83C333.685 1437.05 333.423 1436.42 332.898 1435.94C332.373 1435.47 331.623 1435.24 330.648 1435.24C329.673 1435.24 328.923 1435.47 328.398 1435.94C327.873 1436.42 327.61 1437.05 327.61 1437.83C327.61 1438.56 327.88 1439.15 328.42 1439.6C328.945 1440.07 329.688 1440.3 330.648 1440.3ZM330.648 1427.7C329.538 1427.7 328.66 1427.98 328.015 1428.53C327.37 1429.09 327.048 1429.79 327.048 1430.63C327.048 1431.51 327.37 1432.24 328.015 1432.81C328.645 1433.38 329.523 1433.66 330.648 1433.66C331.773 1433.66 332.658 1433.38 333.303 1432.81C333.933 1432.24 334.248 1431.51 334.248 1430.63C334.248 1429.79 333.925 1429.09 333.28 1428.53C332.635 1427.98 331.758 1427.7 330.648 1427.7ZM315.345 1425.79C316.725 1425.79 317.948 1426.11 319.013 1426.76C320.078 1427.42 320.918 1428.36 321.533 1429.59C322.133 1430.84 322.433 1432.31 322.433 1434C322.433 1435.7 322.133 1437.16 321.533 1438.39C320.918 1439.63 320.078 1440.58 319.013 1441.22C317.948 1441.88 316.725 1442.21 315.345 1442.21C313.965 1442.21 312.743 1441.88 311.678 1441.22C310.613 1440.58 309.78 1439.63 309.18 1438.39C308.565 1437.16 308.258 1435.7 308.258 1434C308.258 1432.31 308.565 1430.84 309.18 1429.59C309.78 1428.36 310.613 1427.42 311.678 1426.76C312.743 1426.11 313.965 1425.79 315.345 1425.79ZM315.345 1427.7C313.875 1427.7 312.72 1428.22 311.88 1429.25C311.04 1430.3 310.62 1431.89 310.62 1434C310.62 1436.12 311.04 1437.69 311.88 1438.73C312.72 1439.78 313.875 1440.3 315.345 1440.3C316.815 1440.3 317.97 1439.78 318.81 1438.73C319.65 1437.69 320.07 1436.12 320.07 1434C320.07 1431.89 319.65 1430.3 318.81 1429.25C317.97 1428.22 316.815 1427.7 315.345 1427.7Z" fill="#C7D7F2"/>
<path d="M632.087 1127.49C632.087 1128.6 631.847 1129.59 631.367 1130.46C630.887 1131.33 630.22 1132 629.365 1132.48C628.525 1132.98 627.572 1133.23 626.507 1133.23C622.367 1133.23 618.865 1131.19 616 1127.11V1123.51H616.112C617.117 1125.2 618.077 1126.58 618.992 1127.65C619.922 1128.73 620.897 1129.56 621.917 1130.14C621.572 1129.71 621.34 1129.27 621.22 1128.84C621.115 1128.4 621.062 1127.88 621.062 1127.26C621.062 1126.2 621.302 1125.24 621.782 1124.38C622.262 1123.53 622.922 1122.85 623.762 1122.36C624.602 1121.88 625.54 1121.64 626.575 1121.64C627.625 1121.64 628.562 1121.89 629.387 1122.38C630.227 1122.88 630.887 1123.57 631.367 1124.45C631.847 1125.34 632.087 1126.35 632.087 1127.49ZM622.975 1127.49C622.975 1128.57 623.29 1129.42 623.92 1130.03C624.565 1130.66 625.45 1130.98 626.575 1130.98C627.7 1130.98 628.577 1130.66 629.207 1130.03C629.852 1129.42 630.175 1128.57 630.175 1127.49C630.175 1126.41 629.852 1125.55 629.207 1124.92C628.577 1124.31 627.7 1124 626.575 1124C625.45 1124 624.565 1124.31 623.92 1124.92C623.29 1125.55 622.975 1126.41 622.975 1127.49ZM615.662 1142.9C615.662 1141.52 615.985 1140.3 616.63 1139.24C617.29 1138.17 618.235 1137.33 619.465 1136.72C620.71 1136.12 622.18 1135.82 623.875 1135.82C625.57 1135.82 627.032 1136.12 628.262 1136.72C629.507 1137.33 630.452 1138.17 631.097 1139.24C631.757 1140.3 632.087 1141.52 632.087 1142.9C632.087 1144.28 631.757 1145.51 631.097 1146.57C630.452 1147.64 629.507 1148.47 628.262 1149.07C627.032 1149.68 625.57 1149.99 623.875 1149.99C622.18 1149.99 620.71 1149.68 619.465 1149.07C618.235 1148.47 617.29 1147.64 616.63 1146.57C615.985 1145.51 615.662 1144.28 615.662 1142.9ZM617.575 1142.9C617.575 1144.37 618.092 1145.53 619.127 1146.37C620.177 1147.21 621.76 1147.63 623.875 1147.63C625.99 1147.63 627.565 1147.21 628.6 1146.37C629.65 1145.53 630.175 1144.37 630.175 1142.9C630.175 1141.43 629.65 1140.28 628.6 1139.44C627.565 1138.6 625.99 1138.18 623.875 1138.18C621.76 1138.18 620.177 1138.6 619.127 1139.44C618.092 1140.28 617.575 1141.43 617.575 1142.9Z" fill="#C7D7F2"/>
<path d="M34.3624 1146.66L36.4999 1146.88V1157.39H34.6999C34.0249 1156.25 33.3349 1155.2 32.6299 1154.24C31.9249 1153.28 31.2799 1152.49 30.6949 1151.86C29.9149 1150.99 29.0749 1150.32 28.1749 1149.85C27.2749 1149.37 26.3599 1149.13 25.4299 1149.13C24.4849 1149.13 23.7349 1149.41 23.1799 1149.97C22.6099 1150.52 22.3249 1151.26 22.3249 1152.19C22.3249 1153.15 22.6249 1153.94 23.2249 1154.56C23.8249 1155.17 24.7174 1155.48 25.9024 1155.48C26.4274 1155.48 27.0199 1155.41 27.6799 1155.28L27.4549 1157.64C26.8099 1157.79 26.1799 1157.86 25.5649 1157.86C24.4249 1157.86 23.4724 1157.6 22.7074 1157.08C21.9274 1156.55 21.3499 1155.86 20.9749 1155.01C20.5999 1154.14 20.4124 1153.2 20.4124 1152.19C20.4124 1151.11 20.6299 1150.16 21.0649 1149.34C21.4849 1148.51 22.0774 1147.88 22.8424 1147.45C23.6074 1147 24.4699 1146.77 25.4299 1146.77C26.6299 1146.77 27.8224 1147.11 29.0074 1147.78C30.1774 1148.44 31.2649 1149.36 32.2699 1150.53C33.0349 1151.43 33.8224 1152.48 34.6324 1153.68L34.3624 1146.66ZM20.7499 1144.86V1133.65H22.5499C24.2599 1135.65 26.2174 1137.15 28.4224 1138.15C30.6274 1139.14 33.3199 1139.7 36.4999 1139.84V1142.31C33.6049 1142.16 30.9724 1141.59 28.6024 1140.58C26.2324 1139.58 24.2299 1138.17 22.5949 1136.37L22.8874 1145.08L20.7499 1144.86ZM36.8374 1125.22C36.8374 1126.6 36.5149 1127.82 35.8699 1128.88C35.2099 1129.95 34.2649 1130.79 33.0349 1131.4C31.7899 1132 30.3199 1132.3 28.6249 1132.3C26.9299 1132.3 25.4674 1132 24.2374 1131.4C22.9924 1130.79 22.0474 1129.95 21.4024 1128.88C20.7424 1127.82 20.4124 1126.6 20.4124 1125.22C20.4124 1123.84 20.7424 1122.61 21.4024 1121.55C22.0474 1120.48 22.9924 1119.65 24.2374 1119.05C25.4674 1118.44 26.9299 1118.13 28.6249 1118.13C30.3199 1118.13 31.7899 1118.44 33.0349 1119.05C34.2649 1119.65 35.2099 1120.48 35.8699 1121.55C36.5149 1122.61 36.8374 1123.84 36.8374 1125.22ZM34.9249 1125.22C34.9249 1123.75 34.4074 1122.59 33.3724 1121.75C32.3224 1120.91 30.7399 1120.49 28.6249 1120.49C26.5099 1120.49 24.9349 1120.91 23.8999 1121.75C22.8499 1122.59 22.3249 1123.75 22.3249 1125.22C22.3249 1126.69 22.8499 1127.84 23.8999 1128.68C24.9349 1129.52 26.5099 1129.94 28.6249 1129.94C30.7399 1129.94 32.3224 1129.52 33.3724 1128.68C34.4074 1127.84 34.9249 1126.69 34.9249 1125.22Z" fill="#C7D7F2"/>
<path d="M219.938 899.001L326.813 1135.25H68.0627C68.0627 993.501 169.313 918.689 219.938 899.001Z" fill="url(#paint0_linear_935_4)" stroke="#C7D7F2" stroke-width="3.375" stroke-linecap="round"/>
<circle cx="228.375" cy="953.001" r="5.0625" fill="#C7D7F2" stroke="#C7D7F2" stroke-width="1.125"/>
<circle cx="185.625" cy="987.876" r="5.0625" fill="#C7D7F2" stroke="#C7D7F2" stroke-width="1.125"/>
<circle cx="189" cy="950.751" r="5.0625" fill="#C7D7F2" stroke="#C7D7F2" stroke-width="1.125"/>
<circle cx="239.625" cy="995.751" r="5.0625" fill="#C7D7F2" stroke="#C7D7F2" stroke-width="1.125"/>
<circle cx="185.625" cy="1047.5" r="5.0625" fill="#C7D7F2" stroke="#C7D7F2" stroke-width="1.125"/>
<circle cx="122.625" cy="1053.13" r="5.0625" fill="#C7D7F2" stroke="#C7D7F2" stroke-width="1.125"/>
<path d="M1297.74 1478.27C1297.88 1480.65 1284.36 1482.49 1277.58 1483.11C1281.01 1478.87 1279.98 1471.64 1279.04 1468.56C1285.22 1470.8 1297.6 1475.89 1297.74 1478.27Z" fill="#A1AFC9"/>
<path d="M295.139 1375.73L283.381 1366.99C282.012 1346.49 287.468 1322.51 290.368 1313.08L303.571 1303.13L584.88 1342.66C590.451 1350.06 600.321 1347.59 604.56 1345.43L1107.64 1415.54L1108.64 1421L1144.69 1424.88L1146.19 1426.86L1181.91 1433.06L1279.36 1466.24C1284.54 1473.11 1280.45 1482.33 1277.75 1486.08L1173.94 1489.79L1137.55 1484.09L1135.57 1485.58L1100.35 1480.04L1098.54 1484.51L595.793 1416.21C587.971 1408.03 581.18 1412.39 578.763 1415.59L295.139 1375.73Z" fill="#C7D7F2"/>
<path d="M1027.1 1404.81C1029.8 1425.97 1021.38 1459.49 1016.84 1473.61L595.793 1416.21C586.915 1408.82 580.741 1412.72 578.763 1415.59L295.139 1375.73L283.381 1366.99C279.784 1355.62 286.54 1326.31 290.368 1313.08L303.571 1303.13L584.88 1342.66C591.378 1350.19 600.707 1347.64 604.56 1345.43L1027.1 1404.81Z" fill="#A1AFC9"/>
<path d="M1173.44 1489.13C1176.89 1478.6 1183.18 1452.6 1180.75 1432.9" stroke="#A1AFC9" stroke-width="8.26626" stroke-linecap="round"/>
<path d="M584.304 1380.36C511.309 1385.68 390.855 1372.26 339.753 1364.88C338.496 1369.62 335.455 1379.5 333.342 1381.09L295.14 1375.73L283.382 1366.99C281.937 1361.87 281.312 1343.92 290.368 1313.08L303.572 1303.13L339.459 1308.17C340.237 1311.04 341.894 1317.72 342.3 1321.56C565.617 1348.69 596.685 1372.06 584.304 1380.36Z" fill="#C7D7F2"/>
<defs>
<linearGradient id="paint0_linear_935_4" x1="264.938" y1="990.126" x2="188.438" y2="1135.25" gradientUnits="userSpaceOnUse">
<stop stop-color="#BDC1E3"/>
<stop offset="1" stop-color="#BDC1E3" stop-opacity="0"/>
</linearGradient>
</defs>
</svg>
