<svg width="1356" height="931" viewBox="0 0 1356 931" fill="none" xmlns="http://www.w3.org/2000/svg">
<path d="M1279.16 204.378L1346.13 157.575H1279.16V64.5349H884.875V294.035H1279.16V204.378Z" stroke="#D90429" stroke-width="3" stroke-linecap="round"/>
<path d="M1254.43 450.067L1350.63 496.869H1254.43V589.91H688V360.41H1254.43V450.067Z" fill="#D90429" stroke="#D90429" stroke-width="3.375" stroke-linecap="round"/>
<path d="M71.7822 460.622L5 507.322H71.7822V600.16H465V371.16H71.7822V460.622Z" stroke="#D90429" stroke-width="3" stroke-linecap="round"/>
<path d="M74.5077 4.90985V80.4318H5.12524V294.035H577.75V80.4318H133.375L74.5077 4.90985Z" fill="#D90429" stroke="#D90429" stroke-width="3.375" stroke-linecap="round"/>
<path d="M555.882 926.16V850.671H485V637.16H1070V850.671H616.022L555.882 926.16Z" fill="#D90429" stroke="#D90429" stroke-width="3.375" stroke-linecap="round"/>
<path d="M674.971 28.1599V72.8585H633V199.282H829V72.8585H710.58L674.971 28.1599Z" stroke="#D90429" stroke-width="3" stroke-linecap="round"/>
<path d="M1320.08 741.155L1351 715.052H1320.08V663.16H1138V791.16H1320.08V741.155Z" stroke="#D90429" stroke-width="3" stroke-linecap="round"/>
<path d="M30.9231 741.155L0 715.052H30.9231V663.16H213V791.16H30.9231V741.155Z" fill="#D90429"/>
</svg>
