<svg width="149" height="254" viewBox="0 0 149 254" fill="none" xmlns="http://www.w3.org/2000/svg">
<rect y="0.128906" width="148.168" height="253.215" fill="#D90429"/>
<path d="M16.1914 125.302C33.2129 103.472 80.0949 72.9086 131.451 125.302C111.566 149.403 60.6742 183.143 16.1914 125.302Z" fill="white"/>
<circle cx="73.7402" cy="126.924" r="24.9648" fill="#D90429"/>
<path d="M29.2207 28.207C24.0332 43.5102 7.71419 43.5534 0.203125 41.6621V0H63.9121C64.6902 7.39219 58.4004 8.5918 55.1582 8.26758C59.9134 12.1582 66.5707 21.8199 55.1582 29.3418C43.7457 36.8637 33.1113 31.7194 29.2207 28.207Z" fill="white"/>
<path d="M118.961 28.207C124.148 43.5102 140.467 43.5534 147.979 41.6621V0L84.2695 0C83.4914 7.39219 89.7813 8.5918 93.0234 8.26758C88.2682 12.1582 81.6109 21.8199 93.0234 29.3418C104.436 36.8637 115.07 31.7194 118.961 28.207Z" fill="white"/>
</svg>
