<svg width="1440" height="1338" viewBox="0 0 1440 1338" fill="none" xmlns="http://www.w3.org/2000/svg">
<path d="M0 766.958V556.732H70.0754V489.916H205.337V419.84H136.892V346.506H205.337V419.84H612.753V346.506H544.307V276.43H612.753V346.506H754.533V276.43H818.09V346.506H754.533V419.84H888.165V276.43H1095.13V212.873H1166.84V142.798H1232.02V346.506H1370.54V276.43H1442.25V346.506H1370.54V419.84H1442.25V897.331H1370.54V828.885H1303.73V897.331H1166.84V970.666H1101.65V1172.74H1031.58V1026.07H961.5V1250.97L622.531 1246.08V1172.74H547.566V970.666H417.193V1039.11H299.858V1104.3H368.303V1172.74H299.858V1104.3H135.262V1172.74H70.0754V1246.08H0V1172.74H70.0754V766.958H0Z" fill="#C7D7F2"/>
<path d="M839.813 648.846L849.168 722.179L922.5 731.534L849.168 740.889L839.813 814.221L830.458 740.889L757.125 731.534L830.458 722.179L839.813 648.846Z" fill="#EDF2F4"/>
<path d="M572.38 796.254L578.589 844.925L627.26 851.134L578.589 857.343L572.38 906.015L566.171 857.343L517.5 851.134L566.171 844.925L572.38 796.254Z" fill="#EDF2F4"/>
<path d="M197.006 598.432L199.872 620.896L222.335 623.761L199.872 626.627L197.006 649.091L194.14 626.627L171.677 623.761L194.14 620.896L197.006 598.432Z" fill="#EDF2F4"/>
<path d="M383.079 732.096L385.945 754.56L408.409 757.426L385.945 760.291L383.079 782.755L380.214 760.291L357.75 757.426L380.214 754.56L383.079 732.096Z" fill="#EDF2F4"/>
<path d="M171.676 902.396L174.542 924.86L197.005 927.726L174.542 930.591L171.676 953.055L168.81 930.591L146.347 927.726L168.81 924.86L171.676 902.396Z" fill="#EDF2F4"/>
<path d="M1107.45 598.432L1111.75 632.128L1145.45 636.426L1111.75 640.725L1107.45 674.42L1103.16 640.725L1069.46 636.426L1103.16 632.128L1107.45 598.432Z" fill="#EDF2F4"/>
<path d="M690.928 1054.37L695.226 1088.07L728.922 1092.36L695.226 1096.66L690.928 1130.36L686.629 1096.66L652.934 1092.36L686.629 1088.07L690.928 1054.37Z" fill="#EDF2F4"/>
<path d="M991.682 930.077L991.682 1305.93" stroke="#D90429" stroke-width="8.4431" stroke-linecap="round"/>
<circle cx="992.257" cy="918.827" r="11.2575" fill="#D90429"/>
<path d="M556.78 702.358C558.271 705.735 579.973 700.68 590.637 697.731L620.179 683.322C644.935 666 647.276 659.995 645.352 659.158C625.242 657.08 554.916 698.136 556.78 702.358Z" fill="#EDF2F4"/>
<path d="M608.626 695.191C599.852 699.575 592.017 699.048 589.197 698.237C600.612 688.72 615.501 683.762 621.519 682.472C620.878 684.886 617.401 690.808 608.626 695.191Z" fill="#EDF2F4"/>
<path d="M611.534 665.325L582.675 679.401C583.082 676.063 585.69 668.538 592.867 665.141C600.044 661.744 608.302 663.848 611.534 665.325Z" fill="#EDF2F4"/>
<path d="M583.175 678.831C566.672 689.635 558.617 698.929 556.652 702.225L645.613 659.291C635.09 656.759 603.805 665.327 583.175 678.831Z" fill="#EDF2F4"/>
<path d="M277.215 758.299V1333" stroke="#D90429" stroke-width="8.4431" stroke-linecap="round"/>
<circle cx="278.622" cy="761.679" r="11.2575" fill="#D90429"/>
<path d="M905.119 459.606V4.22159" stroke="#D90429" stroke-width="8.4431" stroke-linecap="round"/>
<circle cx="11.25" cy="11.25" r="11.25" transform="matrix(1 0 0 -1 894.375 473.345)" fill="#D90429"/>
<path d="M419.081 551.902L419.081 101.603" stroke="#D90429" stroke-width="8.4431" stroke-linecap="round"/>
<circle cx="11.2575" cy="11.2575" r="11.2575" transform="matrix(1 0 0 -1 407.823 561.751)" fill="#D90429"/>
</svg>
