<svg width="2530" height="2213" viewBox="0 0 2530 2213" fill="none" xmlns="http://www.w3.org/2000/svg">
<path d="M0 2212.09L988.543 483.957L1567.79 522.285L1427.86 615.901L2529.54 2212.09L1975.04 2212.09L535.043 2212.09H0Z" fill="#C7D7F2"/>
<path d="M592.161 238.93C574.994 288.298 848.475 445.482 987.361 517.902L1432.31 653.937C1855.85 713.598 1938.06 674.033 1926.22 646.793C1738.08 431.127 613.62 177.22 592.161 238.93Z" fill="#A6ADC9"/>
<path d="M1198.1 665.293C1064.94 625.965 988.911 544.877 967.541 509.248C1177.6 520.927 1379.62 613.342 1454.38 658.09C1424.44 676.878 1331.26 704.622 1198.1 665.293Z" fill="#C7D7F2"/>
<path d="M1516.53 384.134L1081.85 251.24C1118.29 220.612 1217.95 167.888 1325.05 202.014C1432.15 236.139 1497.33 337.646 1516.53 384.134Z" fill="#C7D7F2"/>
<path d="M1092.54 250.186C817.383 202.703 644.261 221.157 592.095 236.319L1927.62 650.681C1843.12 522.87 1436.49 309.54 1092.54 250.186Z" fill="#EEF4FF"/>
</svg>
